<svg width="32" height="32" viewBox="0 0 32 32" fill="none" xmlns="http://www.w3.org/2000/svg">
<g clip-path="url(#clip0)">
<path d="M26.9506 8.10881C26.7392 7.50819 26.3847 6.99131 25.9524 6.65344C25.5428 6.33313 25.0848 6.19694 24.6636 6.26344C24.6232 5.90912 24.4416 5.58737 24.158 5.32494C24.3091 4.77881 24.2733 4.115 24.0481 3.47525C23.8368 2.87462 23.4823 2.35775 23.05 2.01981C22.6403 1.6995 22.1823 1.5635 21.7611 1.62981C21.6558 0.7045 20.5898 0 19.248 0C17.9111 0 16.8479 0.699375 16.7361 1.61975C16.4962 1.59588 16.2454 1.63638 15.9996 1.73869C15.7279 1.626 15.4499 1.58819 15.1862 1.62981C15.0808 0.7045 14.0149 0 12.6731 0C11.3364 0 10.2736 0.699063 10.1612 1.61913C9.29738 1.53181 8.37075 2.28456 7.95169 3.47531C7.73544 4.08969 7.69444 4.73219 7.82738 5.26769C7.50982 5.53731 7.30475 5.8765 7.25882 6.25275C6.39494 6.16519 5.46838 6.91819 5.04932 8.10888C4.60694 9.36581 4.91019 10.5968 5.73494 11.012C5.49357 11.4665 5.51957 12.0568 5.79938 12.6419C5.742 12.7089 5.69407 12.7851 5.6605 12.8707C5.55694 13.1344 5.59844 13.4259 5.7715 13.6504L11.8144 21.4892C11.9066 21.6089 12.0454 21.6716 12.1856 21.6716C12.2854 21.6716 12.386 21.6397 12.4711 21.5741C12.6759 21.4163 12.714 21.1222 12.5561 20.9173L8.69807 15.9128C8.78175 15.9043 8.86519 15.8927 8.94819 15.8744C9.41019 15.7724 9.80638 15.5164 10.1895 15.2688C10.5453 15.0389 10.8813 14.8217 11.2037 14.7756C11.5234 14.7296 11.9058 14.8431 12.3104 14.9631C12.7496 15.0934 13.2036 15.2279 13.6783 15.1951C14.1524 15.1622 14.5831 14.9662 14.9996 14.7766C15.383 14.6021 15.7452 14.4372 16.0686 14.4372C16.0696 14.4372 16.0705 14.4372 16.0714 14.4372C16.3958 14.4381 16.7579 14.6056 17.1415 14.7829C17.5568 14.975 17.9863 15.1736 18.46 15.2093C18.9353 15.2449 19.3896 15.113 19.8294 14.9854C20.2347 14.8679 20.6175 14.7569 20.9371 14.8045C21.2593 14.8527 21.5941 15.0719 21.9485 15.3041C22.33 15.5539 22.7245 15.8123 23.1857 15.9171C23.2183 15.9245 23.2509 15.9301 23.2836 15.9359L19.4497 20.9093C19.2918 21.1141 19.3298 21.4081 19.5346 21.5661C19.7395 21.724 20.0336 21.686 20.1914 21.4811L26.2283 13.6501C26.4013 13.4257 26.4428 13.1343 26.3394 12.8706C26.3059 12.7849 26.2579 12.7087 26.2006 12.6416C26.4803 12.0566 26.5063 11.4664 26.2649 11.012C27.0898 10.5967 27.393 9.36575 26.9506 8.10881ZM17.6086 2.76588C17.7778 2.64094 17.8429 2.41862 17.7679 2.22225C17.6731 1.97388 17.6629 1.831 17.6629 1.78112C17.6629 1.29775 18.4998 0.936562 19.248 0.936562C19.9963 0.936562 20.8331 1.29775 20.8331 1.78112C20.8331 1.82712 20.8232 2.00081 20.6949 2.30475C20.6103 2.50556 20.6754 2.73831 20.8519 2.86606C21.0286 2.99388 21.2699 2.98288 21.4341 2.83975C21.5845 2.70869 21.7369 2.60844 21.8418 2.5715C22.0141 2.51087 22.2443 2.57881 22.4732 2.75781C22.7621 2.98362 23.0141 3.3585 23.1647 3.78631C23.2905 4.14381 23.337 4.51019 23.3035 4.82425C23.0478 4.73338 22.7656 4.67269 22.4658 4.64738C22.4572 4.64663 22.4487 4.64594 22.4401 4.64525C22.4021 4.64231 22.3638 4.64 22.3253 4.63819C22.3144 4.63769 22.3036 4.637 22.2926 4.63656C22.2455 4.63481 22.1982 4.63363 22.1503 4.63363C22.1013 4.63363 22.0528 4.63487 22.0046 4.63669C21.6559 4.65012 21.3284 4.71144 21.0343 4.81169C20.9072 3.93963 20.1547 3.26763 19.2479 3.26763C18.5557 3.26763 17.9536 3.65931 17.6507 4.2325C17.6456 4.18994 17.6396 4.14725 17.6328 4.10444C17.6308 4.09188 17.6284 4.07931 17.6263 4.06669C17.6169 4.0115 17.6063 3.95631 17.5941 3.901C17.5925 3.89375 17.5911 3.88656 17.5895 3.87937C17.5759 3.81925 17.5602 3.75919 17.5433 3.69913C17.5394 3.68519 17.5353 3.67131 17.5312 3.65744C17.5134 3.59687 17.4944 3.53644 17.4733 3.47625C17.4731 3.47594 17.4731 3.47569 17.473 3.47537C17.4729 3.475 17.4727 3.47463 17.4726 3.47419C17.4548 3.42369 17.4356 3.37406 17.4159 3.32481C17.411 3.31262 17.4061 3.30056 17.4011 3.2885C17.3808 3.2395 17.3598 3.19094 17.3376 3.14331C17.3363 3.14031 17.3348 3.13744 17.3333 3.13444C17.3119 3.08869 17.2894 3.04381 17.2663 2.9995C17.2611 2.98956 17.2559 2.97962 17.2506 2.96975C17.2258 2.92319 17.2002 2.87725 17.1736 2.83238C17.1732 2.83169 17.1728 2.831 17.1724 2.83031C17.3166 2.88175 17.4806 2.8605 17.6086 2.76588ZM20.1171 5.07312C20.1171 5.19894 20.0896 5.31825 20.0413 5.42631C19.9534 5.52094 19.878 5.62213 19.8166 5.72875C19.6641 5.86125 19.4655 5.94212 19.248 5.94212C18.7689 5.94212 18.3791 5.55231 18.3791 5.07312C18.3791 4.594 18.7689 4.20419 19.248 4.20419C19.7273 4.20419 20.1171 4.594 20.1171 5.07312ZM15.0916 9.70675C15.0916 9.22762 15.4814 8.83781 15.9605 8.83781C16.4396 8.83781 16.8294 9.22762 16.8294 9.70675C16.8294 10.1859 16.4396 10.5757 15.9605 10.5757C15.4814 10.5757 15.0916 10.1859 15.0916 9.70675ZM15.3898 11.4192C14.9454 11.4273 14.491 11.4446 14.033 11.4694C14.0303 11.4513 14.0261 11.4337 14.0228 11.4157C14.0194 11.3972 14.0164 11.3784 14.0123 11.3601C14.0069 11.3362 14.0002 11.3129 13.9936 11.2895C13.9889 11.2727 13.9849 11.2557 13.9797 11.2392C13.9717 11.214 13.9621 11.1895 13.9528 11.1649C13.9475 11.1509 13.9429 11.1366 13.9372 11.1229C13.9227 11.0882 13.9066 11.0544 13.8893 11.0212C13.8878 11.0182 13.8866 11.015 13.885 11.0121C14.0822 10.9128 14.2492 10.7665 14.3837 10.5848C14.6017 10.9747 14.96 11.2756 15.3898 11.4192ZM17.572 10.5196C17.6692 10.6644 17.7845 10.7881 17.9154 10.8867C17.9786 10.9342 18.0451 10.9764 18.115 11.0119C18.0958 11.0482 18.0783 11.0855 18.0624 11.1237C18.0572 11.1361 18.0532 11.149 18.0484 11.1615C18.0383 11.1876 18.0283 11.2137 18.0197 11.2407C18.0148 11.2562 18.011 11.2723 18.0066 11.288C17.9998 11.3127 17.9927 11.3373 17.9871 11.3626C17.9833 11.3797 17.9805 11.3972 17.9773 11.4146C17.9736 11.434 17.9692 11.4531 17.9663 11.4729C17.4835 11.4467 17.0026 11.4283 16.5301 11.4198C16.9842 11.2683 17.3584 10.9413 17.572 10.5196ZM17.1783 5.89269C17.4099 6.04525 17.5457 6.23306 17.5457 6.41469C17.5457 6.46069 17.5358 6.63438 17.4076 6.93825C17.3228 7.13912 17.3879 7.37181 17.5645 7.49963C17.5836 7.51344 17.6036 7.52531 17.6241 7.53587C17.6307 7.53931 17.6375 7.54187 17.6442 7.545C17.6543 7.54969 17.6643 7.55494 17.6747 7.55881C17.6744 7.55938 17.6741 7.56 17.6738 7.56056C17.6289 7.64206 17.5868 7.72662 17.5473 7.81413C17.5429 7.82375 17.5388 7.8335 17.5344 7.84325C17.5199 7.87625 17.5058 7.90969 17.4921 7.9435C17.4874 7.95494 17.4827 7.96638 17.4781 7.97788C17.4611 8.021 17.4446 8.0645 17.429 8.10888C17.3894 8.2215 17.3555 8.335 17.3274 8.44856C17.3222 8.46981 17.3176 8.49106 17.3128 8.51225C16.9818 8.13787 16.4984 7.90119 15.9605 7.90119C15.4559 7.90119 14.9993 8.1095 14.6714 8.44431C14.6436 8.33306 14.6103 8.22106 14.5708 8.10888C14.5517 8.05456 14.5312 8.0015 14.51 7.94906C14.5059 7.93881 14.5018 7.92863 14.4976 7.91844C14.4757 7.86556 14.4529 7.81356 14.4291 7.76275C14.4282 7.76094 14.4273 7.75919 14.4264 7.75737C14.4013 7.70394 14.3749 7.65181 14.3477 7.60069C14.3467 7.59881 14.3458 7.59694 14.3448 7.59506C14.3164 7.54206 14.2869 7.49038 14.2564 7.44C14.2564 7.43994 14.2564 7.43981 14.2563 7.43975C14.2788 7.42825 14.3004 7.41481 14.3212 7.39956C14.4903 7.27462 14.5554 7.05231 14.4804 6.85594C14.3856 6.60756 14.3754 6.46469 14.3754 6.41481C14.3754 5.93144 15.2123 5.57025 15.9606 5.57025C15.9929 5.57025 16.0251 5.57137 16.0572 5.57244C16.4656 5.58887 16.8881 5.70825 17.1783 5.89269ZM8.83513 3.78625C9.08357 3.08044 9.70219 2.411 10.1581 2.57144C10.1963 2.58488 10.303 2.63006 10.4673 2.75831C10.6331 2.88769 10.8647 2.89075 11.0338 2.76581C11.2029 2.64087 11.2679 2.41856 11.193 2.22219C11.0983 1.97394 11.088 1.83106 11.088 1.78106C11.088 1.29769 11.9249 0.9365 12.6731 0.9365C13.4214 0.9365 14.2583 1.29769 14.2583 1.78106C14.2583 1.82706 14.2483 2.00075 14.1201 2.30463C14.0354 2.5055 14.1004 2.73825 14.2771 2.866C14.4536 2.99375 14.695 2.98281 14.8594 2.83962C15.0096 2.70862 15.162 2.60837 15.267 2.57137C15.412 2.52037 15.5981 2.56137 15.7899 2.68206C15.8004 2.68862 15.8109 2.695 15.8213 2.702C15.8451 2.71806 15.8689 2.73519 15.8928 2.75362C15.8981 2.75769 15.9032 2.76212 15.9084 2.76625C15.94 2.79137 15.9711 2.81787 16.0017 2.84637C16.0031 2.84769 16.0046 2.84894 16.006 2.85025C16.0388 2.88112 16.0709 2.91406 16.1023 2.94856C16.105 2.9515 16.1077 2.95438 16.1104 2.95738C16.1418 2.99225 16.1724 3.02875 16.2022 3.06694C16.2039 3.06906 16.2055 3.07125 16.2072 3.07344C16.2988 3.19169 16.3821 3.32494 16.4544 3.46837C16.4571 3.47381 16.4598 3.47919 16.4625 3.48463C16.4846 3.52925 16.5056 3.57481 16.5254 3.62119C16.5283 3.62781 16.5309 3.63456 16.5338 3.64119C16.5536 3.68881 16.5726 3.73706 16.5899 3.78619C16.6026 3.822 16.6141 3.858 16.6251 3.89406C16.6284 3.90488 16.6315 3.91569 16.6346 3.9265C16.6422 3.9525 16.6494 3.9785 16.6562 4.0045C16.6592 4.01612 16.6622 4.02775 16.6651 4.03931C16.672 4.06769 16.6784 4.096 16.6844 4.12425C16.6861 4.13212 16.688 4.14 16.6896 4.14787C16.6968 4.18394 16.7033 4.21987 16.7089 4.25562C16.7102 4.2635 16.7111 4.27131 16.7123 4.27919C16.7164 4.30719 16.7202 4.33506 16.7233 4.36281C16.7246 4.37419 16.7258 4.3855 16.7269 4.39675C16.7294 4.42212 16.7314 4.44737 16.7331 4.4725C16.7338 4.48294 16.7346 4.49337 16.7352 4.50375C16.737 4.53813 16.7383 4.57225 16.7384 4.60594C16.7384 4.60638 16.7384 4.60681 16.7384 4.60725C16.7386 4.64081 16.7378 4.67387 16.7363 4.70662C16.7362 4.70994 16.7359 4.71319 16.7358 4.7165C16.5556 4.67675 16.3664 4.65056 16.1699 4.63969C16.1611 4.63919 16.1523 4.63881 16.1434 4.63837C16.0831 4.63544 16.0223 4.6335 15.9607 4.6335C15.4009 4.6335 14.8894 4.7565 14.4754 4.96663C14.4201 4.02044 13.6331 3.2675 12.6733 3.2675C11.7665 3.2675 11.0139 3.9395 10.8869 4.81156C10.6913 4.74487 10.4813 4.69506 10.2597 4.6655C10.241 4.663 10.2219 4.66113 10.2031 4.65894C10.1821 4.6565 10.1614 4.65375 10.1403 4.65163C10.1349 4.65106 10.1294 4.65081 10.1239 4.65025C10.0088 4.63931 9.89094 4.63344 9.77082 4.63344C9.72519 4.63344 9.67988 4.63444 9.63488 4.63606C9.62788 4.63631 9.62094 4.63681 9.61394 4.63706C9.57363 4.63875 9.53357 4.641 9.49382 4.64394C9.49113 4.64412 9.4885 4.64438 9.48588 4.64456C9.2045 4.666 8.93844 4.71875 8.69457 4.79812C8.66619 4.48912 8.71344 4.13194 8.83513 3.78625ZM13.542 5.07312C13.542 5.55231 13.1522 5.94212 12.6731 5.94212C12.4556 5.94212 12.2569 5.86119 12.1044 5.72862C12.043 5.622 11.9678 5.52081 11.8799 5.42625C11.8316 5.31825 11.8042 5.19894 11.8042 5.07312C11.8042 4.594 12.194 4.20419 12.6731 4.20419C13.1522 4.20419 13.542 4.594 13.542 5.07312ZM7.17619 10.5769C7.1175 10.3767 6.93388 10.2405 6.727 10.2405C6.71969 10.2405 6.71238 10.2406 6.70507 10.241C6.499 10.2504 6.31138 10.2335 6.20307 10.1954C5.827 10.0631 5.6315 9.27562 5.93269 8.41981C6.23388 7.56406 6.8795 7.0725 7.25563 7.20506C7.29388 7.2185 7.40057 7.26369 7.56488 7.39194C7.73057 7.52131 7.96225 7.52437 8.13132 7.39944C8.30044 7.2745 8.3655 7.05219 8.29057 6.85581C8.19582 6.60756 8.18557 6.46469 8.18557 6.41469C8.18557 6.10425 8.59657 5.76531 9.20675 5.63044C9.21432 5.62881 9.22194 5.62725 9.2295 5.62563C9.26519 5.61812 9.30157 5.61131 9.3385 5.60525C9.36832 5.60044 9.39825 5.59581 9.42857 5.59194C9.44425 5.58994 9.46007 5.58819 9.47594 5.58644C9.51863 5.58181 9.56157 5.57775 9.60507 5.57519C9.61007 5.57488 9.61513 5.57475 9.62013 5.5745C9.66994 5.57181 9.72007 5.57019 9.77069 5.57019C9.79463 5.57019 9.81832 5.57069 9.84194 5.57125C10.2073 5.58225 10.5864 5.67663 10.8739 5.82688C10.9697 5.87894 11.0534 5.93656 11.1229 5.99769C11.1829 6.09787 11.2523 6.19181 11.3299 6.27825C11.3419 6.31113 11.3502 6.34406 11.3537 6.37681C11.3548 6.38937 11.3558 6.402 11.3558 6.41481C11.3558 6.46081 11.3458 6.6345 11.2176 6.93837C11.1329 7.13919 11.1979 7.37194 11.3745 7.49975C11.3959 7.51519 11.4183 7.52844 11.4413 7.53988C11.4488 7.54362 11.4568 7.54606 11.4646 7.54938C11.4803 7.55613 11.4959 7.56287 11.5121 7.56787C11.5216 7.57081 11.5314 7.57237 11.541 7.57469C11.5558 7.57819 11.5706 7.58181 11.5856 7.58388C11.5961 7.58531 11.6064 7.58556 11.6169 7.58625C11.6276 7.587 11.6383 7.58875 11.649 7.58875C11.6543 7.58875 11.6595 7.58825 11.6648 7.58806C11.6684 7.58794 11.6719 7.58781 11.6756 7.58756C11.698 7.58631 11.7203 7.58344 11.7424 7.579C11.7458 7.57831 11.7492 7.5775 11.7526 7.57669C11.7748 7.57169 11.7967 7.56519 11.8181 7.55688C11.8209 7.55581 11.8237 7.5545 11.8264 7.55337C11.8483 7.54444 11.8697 7.53406 11.8903 7.52169C11.8919 7.52069 11.8936 7.5195 11.8953 7.51844C11.9167 7.50519 11.9374 7.49038 11.9569 7.47337C12.0132 7.42425 12.0699 7.37944 12.1242 7.34069C12.2148 7.27606 12.2989 7.22825 12.3645 7.20519C12.3653 7.20494 12.3661 7.20475 12.3669 7.2045C12.3783 7.20056 12.3899 7.19719 12.4018 7.19438C12.4117 7.19206 12.4219 7.19025 12.4321 7.18869C12.4344 7.18831 12.4365 7.18781 12.4388 7.1875C12.7044 7.15175 13.068 7.37419 13.3598 7.78269C13.3651 7.79025 13.3704 7.79781 13.3757 7.8055C13.3853 7.81925 13.3948 7.83306 13.4043 7.84725C13.4202 7.87144 13.4359 7.896 13.4513 7.92106C13.4542 7.92581 13.457 7.93075 13.4599 7.93556C13.4748 7.96038 13.4894 7.9855 13.5037 8.01112C13.5059 8.01506 13.5081 8.01894 13.5103 8.02294C13.5431 8.08275 13.5739 8.14469 13.6026 8.20844C13.6046 8.21288 13.6066 8.21731 13.6085 8.22175C13.6203 8.24819 13.6315 8.27494 13.6424 8.30194C13.6454 8.30925 13.6484 8.3165 13.6513 8.32388C13.6639 8.35563 13.676 8.38762 13.6874 8.42C13.6954 8.44263 13.7028 8.46513 13.7101 8.48769C13.8211 8.83606 13.8579 9.22512 13.8116 9.54631C13.7606 9.86294 13.6289 10.0971 13.4523 10.1811C13.4408 10.1864 13.4291 10.1914 13.4171 10.1957C13.404 10.2003 13.3896 10.2046 13.3743 10.2086C13.2673 10.2362 13.1076 10.2484 12.9341 10.2417C12.9338 10.2417 12.9334 10.2418 12.9331 10.2418C12.9311 10.2417 12.9291 10.2417 12.9271 10.2416C12.9269 10.2416 12.9269 10.2416 12.9268 10.2416C12.9239 10.2415 12.9169 10.2413 12.9123 10.2411C12.91 10.2411 12.9079 10.2415 12.9056 10.2414C12.9033 10.2415 12.9009 10.2411 12.8986 10.2411C12.8941 10.2413 12.8869 10.2414 12.8836 10.2416C12.879 10.2418 12.8746 10.2426 12.87 10.2429C12.7336 10.2494 12.6104 10.3145 12.5281 10.4179C12.524 10.4229 12.5194 10.4274 12.5155 10.4326C12.5061 10.4454 12.4984 10.4596 12.4904 10.4734C12.4854 10.4821 12.4796 10.4901 12.4751 10.499C12.4687 10.5118 12.464 10.5257 12.4588 10.5393C12.4548 10.5493 12.4499 10.5587 12.4466 10.5691C12.4463 10.5702 12.4462 10.5715 12.4458 10.5727C12.4453 10.5742 12.4445 10.5756 12.4441 10.5772C12.4404 10.5897 12.439 10.6024 12.4364 10.6149C12.4339 10.6267 12.4307 10.6385 12.4292 10.6504C12.4274 10.6647 12.4274 10.6788 12.427 10.6931C12.4266 10.7047 12.4254 10.7163 12.4259 10.7279C12.4264 10.7422 12.4288 10.7563 12.4307 10.7704C12.4322 10.7816 12.4329 10.7929 12.4353 10.8039C12.4381 10.8177 12.4427 10.8311 12.4468 10.8447C12.4501 10.8555 12.4528 10.8665 12.4568 10.8771C12.4618 10.8901 12.4683 10.9023 12.4745 10.9148C12.4796 10.9252 12.4841 10.9358 12.49 10.9458C12.4969 10.9576 12.5052 10.9684 12.5131 10.9796C12.5201 10.9894 12.5265 10.9994 12.5342 11.0087C12.5428 11.019 12.5526 11.0282 12.5621 11.0378C12.5709 11.0466 12.5793 11.0559 12.5889 11.0641C12.5978 11.0717 12.6076 11.0782 12.6172 11.0852C12.6188 11.0864 12.6206 11.0875 12.6222 11.0887C12.6308 11.0949 12.6384 11.1019 12.6474 11.1074C12.6505 11.1094 12.6539 11.1112 12.6572 11.1131C12.6579 11.1135 12.6584 11.1141 12.6591 11.1144C12.6633 11.1168 12.6666 11.1191 12.6707 11.1214C12.8086 11.2022 12.8974 11.2718 12.952 11.3218C12.9522 11.3219 12.9523 11.3221 12.9524 11.3222C12.9632 11.332 12.9726 11.3411 12.9808 11.3494C12.9831 11.3517 12.9848 11.3536 12.9869 11.3558C12.9923 11.3614 12.9979 11.3671 13.0021 11.3719C13.0081 11.3785 13.013 11.3842 13.0169 11.389C13.0301 11.4052 13.0411 11.4224 13.0513 11.4399C13.0531 11.4431 13.0549 11.4461 13.0567 11.4493C13.0659 11.4664 13.0739 11.484 13.0807 11.5021C13.0819 11.5054 13.083 11.5087 13.0841 11.512C13.0862 11.5179 13.0876 11.5241 13.0894 11.5302C10.5708 11.7156 8.07988 12.0813 6.67925 12.3083C6.48244 11.9378 6.44757 11.5811 6.60375 11.3891C6.63507 11.3506 6.73263 11.2467 6.96144 11.1144C7.14819 11.0061 7.237 10.7841 7.17619 10.5769ZM23.9854 15.0256C23.7806 15.0427 23.5755 15.0451 23.3934 15.0037C23.0967 14.9363 22.7883 14.7343 22.4618 14.5205C22.0386 14.2433 21.6009 13.9567 21.0758 13.8782C20.5533 13.8001 20.0528 13.9454 19.5686 14.0859C19.1921 14.1951 18.8358 14.2983 18.5305 14.2753C18.2257 14.2523 17.89 14.0971 17.5346 13.9328C17.0767 13.7211 16.6032 13.5021 16.0743 13.5006C15.5433 13.4996 15.0708 13.7151 14.6116 13.9241C14.2553 14.0864 13.9186 14.2396 13.6135 14.2607C13.3075 14.282 12.9526 14.1767 12.5768 14.0652C12.0934 13.9219 11.5936 13.7736 11.0708 13.8484C10.5453 13.9237 10.106 14.2077 9.68119 14.4822C9.35332 14.6941 9.04363 14.8942 8.74638 14.9598C8.51944 15.0099 8.25494 14.9928 7.961 14.9567L6.65388 13.2611C7.89057 13.0582 10.7798 12.618 13.5876 12.4348C13.5878 12.4348 13.5879 12.4348 13.5879 12.4348C14.1162 12.4004 14.6199 12.3765 15.0941 12.3632C15.1121 12.3627 15.1299 12.3623 15.1478 12.3618C15.2224 12.3598 15.2964 12.3581 15.3696 12.3566C15.4125 12.3558 15.4552 12.3552 15.4979 12.3546C15.5496 12.3538 15.6015 12.3529 15.6524 12.3524C15.749 12.3514 15.8453 12.3507 15.9407 12.3507C16.0406 12.3507 16.1413 12.3514 16.2423 12.3524C16.2959 12.3529 16.3506 12.3539 16.405 12.3547C16.4499 12.3554 16.4946 12.3559 16.5396 12.3568C16.6162 12.3583 16.6937 12.3601 16.7717 12.3621C16.7919 12.3626 16.812 12.3631 16.8322 12.3636C17.3319 12.3774 17.8603 12.4023 18.4124 12.4382C18.4124 12.4382 18.4124 12.4382 18.4125 12.4382C21.2606 12.6233 24.1233 13.0596 25.346 13.2607L23.9854 15.0256ZM25.7968 10.1954C25.6885 10.2336 25.5008 10.2506 25.2948 10.241C25.0804 10.2306 24.8844 10.3697 24.8237 10.577C24.7629 10.7842 24.8518 11.0061 25.0387 11.1143C25.2674 11.2465 25.3651 11.3504 25.3964 11.3889C25.5526 11.5808 25.5178 11.9373 25.3213 12.3076C23.9314 12.0819 21.4583 11.7194 18.9099 11.5331C18.9119 11.5265 18.9134 11.5197 18.9156 11.5131C18.9169 11.5096 18.9179 11.5061 18.9193 11.5026C18.9259 11.4846 18.9339 11.4671 18.9431 11.4501C18.945 11.4466 18.9471 11.4431 18.9491 11.4396C18.9592 11.4222 18.9701 11.4052 18.9831 11.3892C18.9833 11.3891 18.9833 11.389 18.9834 11.3889C18.9873 11.3841 18.9922 11.3784 18.9981 11.3717C19.0028 11.3666 19.0086 11.3605 19.0146 11.3543C19.0163 11.3526 19.0176 11.3511 19.0194 11.3493C19.0694 11.2989 19.1645 11.2177 19.3311 11.1203C19.3314 11.1201 19.3318 11.1199 19.3321 11.1197C19.3351 11.1179 19.3376 11.1163 19.3407 11.1144C19.3409 11.1143 19.3412 11.1142 19.3414 11.1141C19.3495 11.1093 19.3585 11.1038 19.3663 11.0985C19.3735 11.0937 19.3795 11.0878 19.3863 11.0826C19.3966 11.0749 19.4068 11.0673 19.4164 11.0588C19.4264 11.0499 19.4356 11.0404 19.4447 11.0309C19.4533 11.0219 19.4618 11.0129 19.4696 11.0034C19.478 10.9929 19.4855 10.982 19.493 10.9709C19.4998 10.961 19.5065 10.9511 19.5124 10.9407C19.5191 10.929 19.5248 10.9169 19.5304 10.9047C19.5354 10.8939 19.5404 10.8832 19.5446 10.8721C19.5493 10.8595 19.5528 10.8466 19.5564 10.8336C19.5596 10.8222 19.5629 10.8109 19.5653 10.7992C19.5679 10.786 19.5693 10.7726 19.5707 10.7591C19.5719 10.7473 19.5735 10.7356 19.5739 10.7236C19.5743 10.7098 19.5734 10.696 19.5726 10.6821C19.5719 10.6702 19.5716 10.6585 19.57 10.6467C19.5681 10.6326 19.5647 10.6187 19.5614 10.6046C19.5593 10.5954 19.5585 10.5862 19.5558 10.577C19.5551 10.5744 19.5538 10.5721 19.5529 10.5696C19.5521 10.5668 19.5518 10.5639 19.5509 10.5611C19.5472 10.5501 19.5418 10.5401 19.5374 10.5296C19.5328 10.5185 19.5287 10.5072 19.5233 10.4966C19.5171 10.4844 19.5097 10.4733 19.5026 10.4618C19.4961 10.4514 19.4901 10.4406 19.4828 10.4308C19.4754 10.4208 19.4669 10.4118 19.4587 10.4024C19.4501 10.3926 19.442 10.3823 19.4326 10.3732C19.4249 10.3657 19.4162 10.3593 19.408 10.3524C19.3969 10.3429 19.3861 10.3331 19.3741 10.3247C19.3672 10.3199 19.3596 10.3162 19.3524 10.3118C19.3381 10.3029 19.3241 10.2938 19.3089 10.2865C19.3045 10.2844 19.2998 10.2832 19.2954 10.2812C19.2449 10.2588 19.1902 10.2458 19.1332 10.2427C19.1319 10.2426 19.1308 10.2426 19.1295 10.2426C19.1251 10.2422 19.1208 10.2415 19.1163 10.2413C19.1134 10.2412 19.1064 10.241 19.1018 10.2408C19.0996 10.2407 19.0973 10.2412 19.0951 10.2411C19.0927 10.2412 19.0904 10.2407 19.0879 10.2408C19.0835 10.2409 19.0764 10.2411 19.0731 10.2413C19.073 10.2413 19.0729 10.2413 19.0728 10.2413C19.0708 10.2414 19.0688 10.2414 19.0668 10.2415C19.0664 10.2415 19.0661 10.2414 19.0658 10.2415C18.8924 10.2482 18.7324 10.2359 18.6255 10.2083C18.6102 10.2043 18.5958 10.2 18.5828 10.1954C18.4104 10.1348 18.2736 9.93762 18.2072 9.65462C18.1234 9.29769 18.1618 8.84756 18.3123 8.41981C18.3237 8.38737 18.3359 8.35544 18.3484 8.32369C18.3513 8.31625 18.3543 8.30894 18.3573 8.30163C18.3682 8.27475 18.3794 8.24813 18.3911 8.22181C18.3932 8.21725 18.3951 8.21256 18.3972 8.208C18.4258 8.1445 18.4566 8.08275 18.4893 8.02312C18.4916 8.01881 18.494 8.01456 18.4964 8.01025C18.5103 7.98525 18.5246 7.96063 18.5391 7.93644C18.5423 7.93113 18.5455 7.92562 18.5488 7.92037C18.5639 7.89556 18.5794 7.87138 18.5952 7.8475C18.6051 7.83262 18.6151 7.81813 18.6252 7.80369C18.6299 7.79694 18.6346 7.79019 18.6393 7.7835C18.9313 7.37431 19.2955 7.1515 19.5613 7.18744C19.5624 7.18762 19.5635 7.18788 19.5646 7.188C19.5759 7.18963 19.5872 7.19163 19.5981 7.19425C19.6107 7.19725 19.6231 7.20075 19.6352 7.20506C19.6734 7.21856 19.7801 7.26369 19.9444 7.392C20.1101 7.52144 20.3419 7.52444 20.5108 7.39956C20.6799 7.27462 20.7451 7.05231 20.6701 6.85594C20.5753 6.60756 20.5651 6.46469 20.5651 6.41481C20.5651 6.40206 20.5659 6.38944 20.5671 6.37681C20.5706 6.34412 20.5789 6.31119 20.5909 6.27831C20.6686 6.19181 20.7379 6.09788 20.798 5.99756C20.8674 5.93656 20.9509 5.87906 21.0464 5.82713C21.334 5.67675 21.7133 5.58225 22.0789 5.57125C22.1025 5.57062 22.1262 5.57019 22.1501 5.57019C22.2628 5.57019 22.3744 5.57725 22.4834 5.59075C22.4848 5.59094 22.4861 5.59113 22.4874 5.59131C22.5386 5.59775 22.589 5.60575 22.6388 5.61506C22.6467 5.61656 22.6545 5.61825 22.6624 5.61981C22.7035 5.62787 22.7439 5.637 22.7838 5.64694C22.8006 5.65119 22.8172 5.65575 22.8337 5.66031C22.861 5.66781 22.8879 5.67581 22.9145 5.68412C23.4125 5.84219 23.7353 6.13963 23.7353 6.41469C23.7353 6.46069 23.7253 6.63438 23.5971 6.93825C23.5124 7.13912 23.5775 7.37188 23.7541 7.49963C23.9306 7.62738 24.1721 7.61644 24.3363 7.47319C24.4866 7.34219 24.6389 7.242 24.7439 7.205C24.9162 7.14437 25.1464 7.21231 25.3753 7.39131C25.6642 7.61713 25.9163 7.992 26.0668 8.41975C26.3683 9.27556 26.1729 10.0631 25.7968 10.1954Z" fill="white"/>
<path d="M9.77089 7.90112C8.77533 7.90112 7.96533 8.71106 7.96533 9.70669C7.96533 10.7023 8.77533 11.5122 9.77089 11.5122C10.7665 11.5122 11.5765 10.7023 11.5765 9.70669C11.5765 8.71106 10.7665 7.90112 9.77089 7.90112ZM9.77089 10.5756C9.29177 10.5756 8.90196 10.1858 8.90196 9.70669C8.90196 9.22756 9.29177 8.83775 9.77089 8.83775C10.2501 8.83775 10.6399 9.22756 10.6399 9.70669C10.6399 10.1858 10.2501 10.5756 9.77089 10.5756Z" fill="white"/>
<path d="M22.1503 7.90118C21.1547 7.90118 20.3447 8.71112 20.3447 9.70674C20.3447 10.7024 21.1547 11.5123 22.1503 11.5123C23.1459 11.5123 23.9559 10.7024 23.9559 9.70674C23.9559 8.71112 23.1459 7.90118 22.1503 7.90118ZM22.1503 10.5757C21.6712 10.5757 21.2814 10.1859 21.2814 9.70674C21.2814 9.22762 21.6712 8.83781 22.1503 8.83781C22.6295 8.83781 23.0193 9.22762 23.0193 9.70674C23.0193 10.1859 22.6295 10.5757 22.1503 10.5757Z" fill="white"/>
<path d="M21.1125 23.2586C21.0294 22.914 20.9641 22.7606 20.8544 22.651C20.5346 22.3312 20.1235 22.1645 19.6628 22.1673C18.5929 22.1751 17.4802 23.091 17.0212 23.516C16.8712 23.4184 16.6928 23.3611 16.501 23.3611H15.4984C15.3066 23.3611 15.1281 23.4185 14.9782 23.516C14.5169 23.0891 13.4054 22.1751 12.3367 22.1673C11.8782 22.1648 11.4648 22.3312 11.1451 22.6509C11.0353 22.7606 10.9701 22.914 10.8868 23.2585C10.6072 24.4155 10.6067 25.6411 10.8855 26.8028C10.9692 27.1514 11.0346 27.3063 11.145 27.4166C11.4617 27.7333 11.8687 27.9003 12.3231 27.9003C12.3276 27.9003 12.3321 27.9003 12.3367 27.9003C12.838 27.8966 13.3485 27.6935 13.797 27.435L13.2868 29.2647C13.1042 29.9198 13.2352 30.6061 13.6465 31.1478C14.0577 31.6894 14.6835 32 15.3636 32H16.6384C17.318 32 17.9436 31.6898 18.3549 31.1488C18.7661 30.6079 18.8978 29.9221 18.716 29.2673L18.2084 27.4385C18.6555 27.6955 19.1637 27.8968 19.6627 27.9004C19.6672 27.9004 19.6716 27.9004 19.6762 27.9004C20.1305 27.9004 20.5376 27.7333 20.8544 27.4166C20.9647 27.3063 21.0302 27.1515 21.1138 26.8029C21.3925 25.6411 21.3922 24.4155 21.1125 23.2586ZM15.4783 24.317C15.4792 24.3063 15.4875 24.2978 15.4984 24.2978H16.5009C16.5123 24.2978 16.5216 24.3071 16.5216 24.3185L16.521 25.7505C16.5207 25.7555 16.5189 25.7601 16.5157 25.7636C16.5155 25.7638 16.5152 25.7639 16.515 25.7641C16.5113 25.7676 16.5064 25.77 16.501 25.77H15.4984C15.493 25.77 15.4881 25.7676 15.4844 25.7641C15.4842 25.764 15.4839 25.7638 15.4837 25.7636C15.48 25.7598 15.4777 25.7548 15.4777 25.7492L15.4783 24.317ZM13.7504 26.346C13.1962 26.7474 12.7049 26.961 12.3297 26.9638C12.1385 26.9636 11.988 26.9123 11.8548 26.7984C11.8427 26.7622 11.8231 26.6963 11.7962 26.5843C11.5519 25.566 11.5522 24.4921 11.7971 23.4785C11.8235 23.3694 11.8428 23.3049 11.8547 23.2693C11.9862 23.1567 12.1366 23.1038 12.3225 23.1038C12.3247 23.1038 12.3267 23.1038 12.3288 23.1038C13.1137 23.1088 14.1719 24.0191 14.5156 24.3716L14.541 24.3975V25.6701L14.5135 25.698C14.5128 25.6988 14.4334 25.78 14.3007 25.8996C14.3004 25.9 14.3001 25.9003 14.2998 25.9006C14.1652 26.0218 13.9746 26.1836 13.7504 26.346ZM17.6093 30.582C17.3767 30.888 17.0229 31.0634 16.6384 31.0634H15.3636C14.9789 31.0634 14.6249 30.8877 14.3923 30.5813C14.1597 30.275 14.0855 29.8868 14.1889 29.5163L15.01 26.5711C15.0111 26.5718 15.0122 26.5723 15.0133 26.573C15.0302 26.583 15.0474 26.5926 15.0649 26.6015C15.0657 26.6019 15.0665 26.6023 15.0672 26.6026C15.0985 26.6185 15.1309 26.6326 15.1641 26.645C15.1729 26.6483 15.1817 26.6516 15.1906 26.6546C15.2047 26.6595 15.219 26.6641 15.2334 26.6682C15.2499 26.673 15.2667 26.6772 15.2837 26.6811C15.2969 26.6842 15.31 26.687 15.3234 26.6895C15.3444 26.6935 15.3656 26.6967 15.387 26.6993C15.3957 26.7003 15.4044 26.7012 15.4131 26.702C15.4413 26.7045 15.4697 26.7063 15.4984 26.7063H16.501C16.5297 26.7063 16.5581 26.7045 16.5864 26.702C16.5953 26.7011 16.6041 26.7002 16.613 26.6991C16.6335 26.6967 16.654 26.6935 16.6742 26.6898C16.6873 26.6873 16.7002 26.6847 16.7132 26.6818C16.7314 26.6776 16.7495 26.673 16.7674 26.6678C16.782 26.6636 16.7964 26.6588 16.8108 26.6538C16.8197 26.6508 16.8285 26.6475 16.8374 26.6441C16.8909 26.6239 16.942 26.5991 16.9905 26.5701C16.992 26.5692 16.9934 26.5685 16.9949 26.5676L17.8136 29.5175C17.9164 29.8881 17.8419 30.276 17.6093 30.582ZM20.2031 26.5843C20.1762 26.6963 20.1566 26.7623 20.1445 26.7985C20.0114 26.9122 19.8584 26.9647 19.6704 26.9638C19.0195 26.9597 18.1812 26.3333 17.7177 25.9183C17.714 25.9148 17.7109 25.9108 17.7071 25.9073C17.5917 25.8037 17.5159 25.7285 17.4922 25.7046C17.4894 25.7018 17.4864 25.6987 17.4837 25.696L17.4583 25.6703V24.3975L17.4862 24.3693C17.4893 24.366 17.8027 24.045 18.2489 23.7218C18.8032 23.3203 19.2945 23.1067 19.6696 23.104C19.672 23.104 19.6744 23.104 19.6768 23.104C19.8627 23.104 20.013 23.1569 20.1448 23.2695C20.1567 23.3051 20.176 23.3696 20.2023 23.4786C20.4471 24.4921 20.4474 25.566 20.2031 26.5843Z" fill="white"/>
</g>
<defs>
<clipPath id="clip0">
<rect width="32" height="32" fill="white"/>
</clipPath>
</defs>
</svg>
