<svg width="32" height="32" viewBox="0 0 32 32" fill="none" xmlns="http://www.w3.org/2000/svg">
<path d="M29.4405 8.26668H24.8944L22.7611 2.93335H9.23893L7.1056 8.26668H6.4V5.60002H3.2V8.26668H2.55947C1.14773 8.26668 0 9.41442 0 10.8261V26.4891C0 27.9104 1.15627 29.0667 2.5776 29.0667H29.4224C30.8437 29.0667 32 27.9104 32 26.4891V10.8261C32 9.41442 30.8523 8.26668 29.4405 8.26668ZM4.26667 6.66668H5.33333V8.26668H4.26667V6.66668ZM30.9333 26.4891C30.9333 27.3227 30.2555 28 29.4224 28H2.5776C1.74453 28 1.06667 27.3222 1.06667 26.4891V10.8261C1.06667 10.0032 1.73653 9.33335 2.55947 9.33335H3.2H6.4H7.82773L9.96107 4.00002H22.0389L24.1723 9.33335H29.4405C30.2635 9.33335 30.9333 10.0032 30.9333 10.8261V26.4891Z" fill="white"/>
<path d="M15.9999 7.73334C10.7066 7.73334 6.3999 12.04 6.3999 17.3333C6.3999 22.6267 10.7066 26.9333 15.9999 26.9333C21.2932 26.9333 25.5999 22.6267 25.5999 17.3333C25.5999 12.04 21.2932 7.73334 15.9999 7.73334ZM15.9999 25.8667C11.2948 25.8667 7.46657 22.0384 7.46657 17.3333C7.46657 12.6283 11.2948 8.8 15.9999 8.8C20.705 8.8 24.5332 12.6283 24.5332 17.3333C24.5332 22.0384 20.705 25.8667 15.9999 25.8667Z" fill="white"/>
<path d="M16.0001 10.9333C12.471 10.9333 9.6001 13.8043 9.6001 17.3334C9.6001 20.8624 12.471 23.7334 16.0001 23.7334C19.5292 23.7334 22.4001 20.8624 22.4001 17.3334C22.4001 13.8043 19.5292 10.9333 16.0001 10.9333ZM16.0001 22.6667C13.0593 22.6667 10.6668 20.2741 10.6668 17.3334C10.6668 14.3925 13.0593 12 16.0001 12C18.9409 12 21.3334 14.3925 21.3334 17.3334C21.3334 20.2741 18.9409 22.6667 16.0001 22.6667Z" fill="white"/>
<path d="M27.7334 10.4C26.5569 10.4 25.6001 11.3568 25.6001 12.5334C25.6001 13.7099 26.5569 14.6667 27.7334 14.6667C28.91 14.6667 29.8668 13.7099 29.8668 12.5334C29.8668 11.3568 28.91 10.4 27.7334 10.4ZM27.7334 13.6C27.1452 13.6 26.6668 13.1216 26.6668 12.5334C26.6668 11.9451 27.1452 11.4667 27.7334 11.4667C28.3217 11.4667 28.8001 11.9451 28.8001 12.5334C28.8001 13.1216 28.3217 13.6 27.7334 13.6Z" fill="white"/>
</svg>
