<svg width="32" height="32" viewBox="0 0 32 32" fill="none" xmlns="http://www.w3.org/2000/svg">
<g clip-path="url(#clip0)">
<path d="M13.4634 1.42075C13.4172 1.09448 13.6443 0.792464 13.9706 0.746383C14.2974 0.699905 14.5989 0.927325 14.645 1.25367L15.59 7.93438C15.6361 8.26066 15.4091 8.56267 15.0828 8.60875C15.0544 8.6128 15.0262 8.61472 14.9984 8.61472C14.7059 8.61472 14.4505 8.3995 14.4084 8.10147L13.4634 1.42075ZM29.1938 3.7055L28.7265 4.17267C28.4935 4.40573 28.4935 4.78352 28.7265 5.01658C28.9596 5.24963 29.3374 5.24957 29.5705 5.01658L30.0377 4.5494L30.5048 5.01658C30.6213 5.13314 30.774 5.19135 30.9267 5.19135C31.0794 5.19135 31.2321 5.13307 31.3487 5.01658C31.5817 4.78352 31.5817 4.40573 31.3487 4.17267L30.8815 3.7055L31.3489 3.23813C31.5819 3.00507 31.5819 2.62727 31.3489 2.39422C31.1158 2.1611 30.738 2.16116 30.5049 2.39422L30.0376 2.86152L29.5703 2.39422C29.3372 2.16116 28.9595 2.16116 28.7263 2.39422C28.4933 2.62727 28.4933 3.00507 28.7263 3.23813L29.1938 3.7055ZM11.8785 11.4569C11.996 11.6103 12.1733 11.6908 12.3527 11.6908C12.4792 11.6908 12.6069 11.6507 12.7152 11.5677C12.9767 11.3673 13.0263 10.9928 12.8259 10.7311L7.55809 3.85528C7.35765 3.59371 6.98311 3.54411 6.72147 3.74448C6.45991 3.94492 6.41031 4.31946 6.61068 4.5811L11.8785 11.4569ZM2.08416 5.88349L2.28168 6.03533C2.39008 6.1186 2.51792 6.15892 2.64482 6.15892C2.82384 6.15892 3.00093 6.07869 3.11849 5.92573C3.31926 5.66443 3.27019 5.28975 3.00889 5.08898L2.81137 4.93715C2.54994 4.73625 2.17533 4.78538 1.97463 5.04668C1.77373 5.30805 1.82286 5.68273 2.08416 5.88349ZM1.58006 13.2794C1.25338 13.2359 0.953357 13.4659 0.910128 13.7926C0.866898 14.1193 1.09664 14.4192 1.42331 14.4625L7.52606 15.2706C7.55265 15.2741 7.57911 15.2758 7.60516 15.2758C7.89988 15.2758 8.15621 15.0575 8.19593 14.7574C8.23915 14.4306 8.00941 14.1308 7.68274 14.0875L1.58006 13.2794ZM4.02936 7.37863L9.8299 11.8365C9.93831 11.9197 10.0661 11.9601 10.1931 11.9601C10.3721 11.9601 10.5492 11.8798 10.6667 11.7269C10.8675 11.4656 10.8185 11.0909 10.5572 10.8901L4.75664 6.43235C4.49541 6.23158 4.12073 6.28058 3.9199 6.54188C3.719 6.80318 3.768 7.1778 4.02936 7.37863ZM16.8633 8.67081C16.8905 8.67453 16.9175 8.67632 16.9443 8.67632C17.2382 8.67632 17.4942 8.45911 17.5348 8.15968L18.4488 1.42109C18.4932 1.09454 18.2643 0.793856 17.9377 0.749566C17.6105 0.705275 17.3106 0.934088 17.2662 1.2607L16.3522 7.99929C16.3079 8.3259 16.5368 8.62652 16.8633 8.67081ZM30.4668 17.1043L22.2824 16.0206C21.9559 15.9777 21.6557 16.207 21.6125 16.5338C21.5692 16.8605 21.799 17.1605 22.1256 17.2037L30.31 18.2874C30.3366 18.2909 30.363 18.2927 30.3891 18.2927C30.6838 18.2927 30.9402 18.0743 30.9799 17.7742C31.0233 17.4475 30.7935 17.1476 30.4668 17.1043ZM30.9829 13.8151C30.9401 13.4883 30.6404 13.2583 30.3138 13.3008L24.1732 14.1046C23.8464 14.1474 23.6162 14.447 23.659 14.7738C23.6983 15.0743 23.9547 15.2931 24.2499 15.2931C24.2757 15.2931 24.3018 15.2915 24.3281 15.288L30.4686 14.4842C30.7955 14.4414 31.0257 14.1419 30.9829 13.8151ZM27.1474 6.44906L21.3702 10.8753C21.1086 11.0757 21.059 11.4502 21.2594 11.7119C21.3769 11.8652 21.5542 11.9457 21.7335 11.9457C21.8601 11.9457 21.9877 11.9056 22.096 11.8227L27.8732 7.39647C28.1348 7.19603 28.1844 6.82148 27.984 6.55985C27.7836 6.29822 27.409 6.24862 27.1474 6.44906ZM25.5513 3.27592C25.6598 3.35933 25.7877 3.39971 25.9147 3.39971C26.0936 3.39971 26.2706 3.31955 26.3881 3.16678L26.4408 3.09836C26.6417 2.83712 26.5928 2.46244 26.3317 2.26154C26.0703 2.06058 25.6957 2.10951 25.4948 2.37068L25.4422 2.4391C25.2412 2.70041 25.2901 3.07502 25.5513 3.27592ZM26.6135 1.89297C26.722 1.97644 26.8499 2.01689 26.977 2.01689C27.1559 2.01689 27.3328 1.93679 27.4503 1.7841L27.5059 1.71182C27.707 1.45066 27.6582 1.07598 27.397 0.874945C27.1358 0.673914 26.7612 0.722713 26.5602 0.983815L26.5046 1.05609C26.3035 1.31732 26.3523 1.692 26.6135 1.89297ZM19.2117 11.5327C19.3202 11.616 19.448 11.6563 19.575 11.6563C19.754 11.6563 19.9311 11.5761 20.0486 11.4232L25.2961 4.59495C25.497 4.33365 25.4479 3.95897 25.1867 3.75814C24.9254 3.55738 24.5507 3.60637 24.3499 3.86767L19.1023 10.6959C18.9014 10.9573 18.9504 11.332 19.2117 11.5327ZM1.17415 4.43092C1.37485 4.16955 1.32572 3.79494 1.06442 3.59417L0.960717 3.51448C0.699283 3.31371 0.324736 3.36291 0.12397 3.62421C-0.0767297 3.88558 -0.027599 4.26019 0.233702 4.46096L0.3374 4.54065C0.445806 4.62386 0.573639 4.66418 0.700477 4.66418C0.879562 4.66418 1.05666 4.58388 1.17415 4.43092ZM19.7517 20.4281C19.8107 20.6672 19.7169 20.918 19.5154 21.0595C19.3139 21.2011 19.0463 21.2044 18.8413 21.0677L16.046 19.2037L13.033 21.0779C12.9362 21.1381 12.8269 21.168 12.7179 21.168C12.5914 21.168 12.4652 21.1279 12.3595 21.0484C12.1626 20.9005 12.0767 20.6468 12.1434 20.4098L13.0523 17.1753L10.3388 14.889C10.1505 14.7303 10.079 14.4723 10.1588 14.2394C10.2386 14.0064 10.4532 13.8464 10.6993 13.8364L14.0564 13.7014L15.3923 10.4141C15.4851 10.186 15.7075 10.0394 15.9546 10.0422C16.2008 10.0461 16.4194 10.2008 16.5048 10.4318L17.6705 13.5828L21.2098 13.8375C21.4554 13.8552 21.6649 14.0219 21.7373 14.2573C21.8097 14.4927 21.7301 14.7484 21.5368 14.901L18.9002 16.9834L19.7517 20.4281ZM17.8588 16.2851L19.5903 14.9175L17.2014 14.7455C16.968 14.7287 16.7659 14.577 16.6847 14.3574L15.919 12.288L15.0172 14.5069C14.9291 14.7238 14.7223 14.869 14.4883 14.8785L12.2836 14.9672L14.1151 16.5104C14.2942 16.6613 14.3684 16.9029 14.3051 17.1283L13.7081 19.2525L15.742 17.9874C15.9407 17.8638 16.1934 17.8677 16.3882 17.9976L18.224 19.2218L17.6493 16.8966C17.5932 16.6693 17.6751 16.4301 17.8588 16.2851ZM27.7317 30.1873C27.5311 29.9258 27.1566 29.8763 26.8951 30.0768C26.6335 30.2773 26.5841 30.6519 26.7846 30.9134L26.8708 31.0259C26.9883 31.1792 27.1655 31.2597 27.3448 31.2597C27.4715 31.2597 27.5992 31.2195 27.7074 31.1365C27.969 30.936 28.0185 30.5614 27.818 30.2999L27.7317 30.1873ZM1.58927 11.5722L2.05644 11.105L2.52362 11.5722C2.64018 11.6887 2.79287 11.747 2.94557 11.747C3.09827 11.747 3.25096 11.6887 3.36752 11.5722C3.60058 11.3391 3.60058 10.9613 3.36752 10.7283L2.90029 10.261L3.36759 9.79373C3.60065 9.56067 3.60065 9.18287 3.36759 8.94982C3.13447 8.71676 2.75674 8.71683 2.52362 8.94982L2.05638 9.41706L1.58914 8.94982C1.35608 8.71676 0.978354 8.71676 0.745165 8.94982C0.512109 9.18287 0.512109 9.56067 0.745165 9.79373L1.21247 10.261L0.745232 10.7283C0.512176 10.9613 0.512176 11.3391 0.745232 11.5722C0.97842 11.8052 1.35622 11.8052 1.58927 11.5722ZM26.5838 28.6882L26.4975 28.5756C26.297 28.3141 25.9224 28.2646 25.6609 28.4651C25.3994 28.6656 25.3499 29.0402 25.5504 29.3017L25.6367 29.4142C25.7542 29.5675 25.9314 29.648 26.1107 29.648C26.2373 29.648 26.365 29.6078 26.4733 29.5248C26.7348 29.3243 26.7843 28.9497 26.5838 28.6882ZM31.3584 21.7848L31.8257 21.3175C32.0588 21.0844 32.0588 20.7066 31.8257 20.4736C31.5926 20.2405 31.2149 20.2406 30.9818 20.4736L30.5145 20.9408L30.0472 20.4735C29.8141 20.2405 29.4364 20.2405 29.2032 20.4735C28.9702 20.7066 28.9702 21.0844 29.2032 21.3174L29.6705 21.7847L29.2034 22.2519C28.9703 22.485 28.9703 22.8628 29.2034 23.0958C29.4365 23.3289 29.8142 23.3289 30.0474 23.0958L30.5145 22.6286L30.9817 23.0958C31.0983 23.2124 31.251 23.2706 31.4037 23.2706C31.5563 23.2706 31.709 23.2123 31.8256 23.0958C32.0587 22.8628 32.0587 22.485 31.8256 22.2519L31.3584 21.7848ZM27.8607 24.1882L22.3 19.9146C22.0388 19.7138 21.6641 19.7628 21.4633 20.0241C21.2624 20.2854 21.3114 20.66 21.5727 20.8609L27.1335 25.1345C27.2419 25.2178 27.3697 25.2582 27.4967 25.2582C27.6757 25.2582 27.8527 25.1779 27.9703 25.025C28.171 24.7637 28.122 24.3891 27.8607 24.1882ZM22.3125 23.1133C22.112 22.8516 21.7375 22.802 21.4759 23.0025C21.2143 23.203 21.1647 23.5775 21.3651 23.8391L24.332 27.7116C24.4495 27.865 24.6268 27.9455 24.8061 27.9455C24.9327 27.9455 25.0604 27.9054 25.1686 27.8224C25.4302 27.622 25.4798 27.2475 25.2794 26.9858L22.3125 23.1133ZM10.4488 19.9943C10.2483 19.7328 9.87379 19.6831 9.61216 19.8836L4.01683 24.1705C3.75527 24.3709 3.70567 24.7454 3.90604 25.0071C4.02353 25.1604 4.20082 25.2409 4.38017 25.2409C4.50675 25.2409 4.63438 25.2008 4.74265 25.1179L10.338 20.831C10.5996 20.6305 10.6492 20.256 10.4488 19.9943ZM4.38303 27.8989C4.14997 27.6658 3.77217 27.6658 3.53912 27.8989L3.07175 28.3662L2.60451 27.899C2.37138 27.6659 1.99366 27.6659 1.76053 27.899C1.52748 28.132 1.52748 28.5098 1.76053 28.7429L2.22777 29.2101L1.7606 29.6773C1.52748 29.9103 1.52748 30.2881 1.76053 30.5212C1.99359 30.7542 2.37138 30.7542 2.60444 30.5212L3.07175 30.0539L3.53892 30.5211C3.65548 30.6376 3.80818 30.6959 3.96087 30.6959C4.11357 30.6959 4.26626 30.6376 4.38283 30.5211C4.61588 30.2881 4.61588 29.9103 4.38283 29.6772L3.91565 29.21L4.38289 28.7428C4.61608 28.5098 4.61608 28.1319 4.38303 27.8989ZM10.2211 16.5327C10.1783 16.2058 9.87757 15.976 9.55196 16.0184L1.42146 17.0826C1.09465 17.1254 0.864445 17.425 0.90721 17.7518C0.946528 18.0523 1.20299 18.2711 1.4981 18.2711C1.52396 18.2711 1.55009 18.2695 1.57634 18.266L9.70684 17.2018C10.0337 17.159 10.2639 16.8594 10.2211 16.5327ZM17.5348 23.5304C17.4905 23.2038 17.189 22.9751 16.8633 23.0193C16.5367 23.0636 16.3079 23.3643 16.3522 23.6908L17.2662 30.4294C17.3068 30.7288 17.5628 30.946 17.8567 30.946C17.8834 30.946 17.9105 30.9443 17.9377 30.9405C18.2643 30.8963 18.4932 30.5956 18.4488 30.269L17.5348 23.5304ZM15.0828 23.0814C14.757 23.0352 14.4545 23.2624 14.4083 23.5887L13.4634 30.2693C13.4172 30.5956 13.6443 30.8976 13.9706 30.9437C13.999 30.9478 14.0272 30.9497 14.0549 30.9497C14.3474 30.9497 14.6029 30.7344 14.645 30.4365L15.5899 23.7559C15.6362 23.4295 15.4091 23.1275 15.0828 23.0814ZM10.4033 22.9944C10.1421 22.7937 9.76725 22.8427 9.56655 23.104L6.59404 26.9718C6.39321 27.2331 6.44227 27.6078 6.70351 27.8086C6.81191 27.8919 6.93974 27.9322 7.06671 27.9322C7.24573 27.9322 7.42283 27.852 7.54032 27.6991L10.5128 23.8312C10.7136 23.5699 10.6646 23.1953 10.4033 22.9944Z" fill="white"/>
</g>
<defs>
<clipPath id="clip0">
<rect width="32" height="32" fill="white"/>
</clipPath>
</defs>
</svg>
