<svg width="32" height="32" viewBox="0 0 32 32" fill="none" xmlns="http://www.w3.org/2000/svg">
<g clip-path="url(#clip0)">
<path d="M31.2929 0.0930179C31.1676 0.0928853 31.0463 0.137226 30.9505 0.218085C30.7773 0.364428 30.6026 0.509379 30.4266 0.652871C22.0034 7.56909 11.6051 11.6384 0.724937 12.2764L0.506484 12.2886C0.214196 12.3069 -0.007903 12.5586 0.0103236 12.8509C0.0183432 12.9798 0.0732217 13.1013 0.164487 13.1927L5.99699 19.0252C6.0962 19.125 6.23108 19.1813 6.37186 19.1816C6.40891 19.1816 6.44582 19.1778 6.48214 19.1705C6.65785 19.1331 6.80273 19.0094 6.86709 18.8417L9.26583 12.6036L15.0676 16.9546C15.3018 17.1304 15.6341 17.083 15.8099 16.8488C15.8489 16.7968 15.878 16.7382 15.8958 16.6757L17.8131 9.96412L24.0979 14.3152C24.3383 14.4824 24.6687 14.423 24.8359 14.1825C24.8913 14.1029 24.9238 14.0096 24.9298 13.9127L25.407 6.22814L31.0555 9.05425C31.2202 9.13544 31.4152 9.12557 31.5709 9.02827C31.7274 8.9317 31.8228 8.76097 31.8228 8.57705V0.623643C31.823 0.330825 31.5857 0.0932167 31.2929 0.0930179ZM6.16984 17.6996L1.73926 13.269C3.91717 13.099 6.08262 12.7955 8.22341 12.3602L6.16984 17.6996ZM15.0877 15.6439L10.1391 11.9323C12.3824 11.3894 14.5873 10.6987 16.7394 9.86444L15.0877 15.6439ZM23.9287 12.9085L18.4934 9.14386C20.5054 8.278 22.4613 7.2872 24.3497 6.17724L23.9287 12.9085ZM30.7623 7.71914L25.8497 5.2626C27.5525 4.18438 29.1927 3.01033 30.7623 1.74613V7.71914Z" fill="white"/>
<path d="M31.7669 24.4068C31.6647 24.3378 31.5418 24.3066 31.4191 24.3184L31.2107 24.3386C20.7848 25.3707 10.3073 22.9649 1.37592 17.488C1.18716 17.3742 0.998931 17.2584 0.81123 17.1407C0.562753 16.9858 0.235669 17.0617 0.0807762 17.3101C0.0153594 17.4151 -0.0112845 17.5395 0.00528507 17.6619L1.07475 25.6154C1.11366 25.9056 1.38056 26.1093 1.67079 26.0704C1.75795 26.0587 1.84087 26.0255 1.91198 25.9738L7.0748 22.2187L8.50377 29.3619C8.5609 29.6491 8.84006 29.8356 9.12731 29.7785C9.21414 29.7612 9.29526 29.7225 9.36326 29.6658L15.1565 24.837L17.5425 31.0406C17.6475 31.314 17.9541 31.4506 18.2275 31.3457C18.305 31.316 18.3744 31.2685 18.4301 31.2071L23.2462 25.9096L26.593 31.6419C26.6843 31.8004 26.8509 31.9005 27.0336 31.907H27.0511C27.227 31.907 27.3914 31.8199 27.4901 31.6743L31.9096 25.1429C32.0734 24.9002 32.0095 24.5707 31.7669 24.4068ZM2.00742 24.5925L1.20466 18.6217C2.90377 19.6323 4.66002 20.5437 6.46451 21.3513L2.00742 24.5925ZM9.36857 28.2782L8.12465 22.0575C10.1575 22.8803 12.2429 23.5669 14.367 24.1127L9.36857 28.2782ZM18.2234 29.8535L16.1815 24.5406C18.1751 24.9716 20.194 25.2763 22.226 25.4531L18.2234 29.8535ZM27.084 30.3837L24.2881 25.5904C26.3268 25.6811 28.3692 25.6436 30.4032 25.478L27.084 30.3837Z" fill="white"/>
<path d="M27.5809 16.5304C26.7024 16.5304 25.9902 17.2426 25.9902 18.1211C25.9902 18.9996 26.7024 19.7118 27.5809 19.7118C28.4594 19.7118 29.1716 18.9996 29.1716 18.1211C29.1716 17.2426 28.4594 16.5304 27.5809 16.5304ZM27.5809 18.6513C27.2881 18.6513 27.0507 18.4139 27.0507 18.1211C27.0507 17.8283 27.2881 17.5909 27.5809 17.5909C27.8737 17.5909 28.1111 17.8283 28.1111 18.1211C28.1111 18.4139 27.8737 18.6513 27.5809 18.6513Z" fill="white"/>
<path d="M3.19029 27.6652C2.31177 27.6652 1.59961 28.3774 1.59961 29.2559C1.59961 30.1344 2.31177 30.8466 3.19029 30.8466C4.06881 30.8466 4.78097 30.1344 4.78097 29.2559C4.78097 28.3774 4.06874 27.6652 3.19029 27.6652ZM3.19029 29.7861C2.89747 29.7861 2.66006 29.5487 2.66006 29.2559C2.66006 28.9631 2.89747 28.7257 3.19029 28.7257C3.48311 28.7257 3.72052 28.9631 3.72052 29.2559C3.72052 29.5487 3.48311 29.7861 3.19029 29.7861Z" fill="white"/>
<path d="M7.43199 2.74451C6.55347 2.74451 5.84131 3.45667 5.84131 4.33519C5.84131 5.21371 6.55347 5.92587 7.43199 5.92587C8.3105 5.92587 9.02266 5.21371 9.02266 4.33519C9.02266 3.45667 8.31044 2.74451 7.43199 2.74451ZM7.43199 4.86541C7.13917 4.86541 6.90176 4.628 6.90176 4.33519C6.90176 4.04237 7.13917 3.80496 7.43199 3.80496C7.7248 3.80496 7.96221 4.04237 7.96221 4.33519C7.96221 4.628 7.7248 4.86541 7.43199 4.86541Z" fill="white"/>
<path d="M1.44418 5.02072L0.694336 5.77057L1.75462 6.83085L2.50447 6.08101L1.44418 5.02072Z" fill="white"/>
<path d="M22.8085 2.21429H21.748V3.80498H22.8085V2.21429Z" fill="white"/>
<path d="M15.5408 0.779254L14.4805 1.83954L15.2303 2.58939L16.2906 1.5291L15.5408 0.779254Z" fill="white"/>
<path d="M10.7688 7.67177L9.7085 8.73206L10.4583 9.48191L11.5186 8.42162L10.7688 7.67177Z" fill="white"/>
<path d="M29.016 9.79294L28.2661 10.5428L29.3264 11.6031L30.0762 10.8532L29.016 9.79294Z" fill="white"/>
<path d="M20.1576 14.9398H19.0972V16.5304H20.1576V14.9398Z" fill="white"/>
<path d="M22.9641 20.3967L21.9038 21.457L22.6537 22.2068L23.7139 21.1465L22.9641 20.3967Z" fill="white"/>
<path d="M10.4583 17.746L9.7085 18.4958L10.7688 19.5561L11.5186 18.8063L10.4583 17.746Z" fill="white"/>
<path d="M14.3251 28.7256H13.2646V30.3163H14.3251V28.7256Z" fill="white"/>
<path d="M5.68344 25.1694L4.93359 25.9193L5.99388 26.9795L6.74373 26.2297L5.68344 25.1694Z" fill="white"/>
<path d="M6.52464 29.9414L5.46436 31.0016L6.2142 31.7515L7.27449 30.6912L6.52464 29.9414Z" fill="white"/>
<path d="M22.9636 29.4109L21.9033 30.4712L22.6532 31.2211L23.7134 30.1607L22.9636 29.4109Z" fill="white"/>
</g>
<defs>
<clipPath id="clip0">
<rect width="32" height="32" fill="white"/>
</clipPath>
</defs>
</svg>
