<svg width="32" height="32" viewBox="0 0 32 32" fill="none" xmlns="http://www.w3.org/2000/svg">
<g clip-path="url(#clip0)">
<path d="M22.7395 18.0045C21.982 16.0118 19.9735 14.8546 17.9463 15.0857L17.7705 6.80113C19.3376 4.68602 20.0728 2.9724 20.0173 1.56628C19.9858 0.76678 19.3948 -0.0247789 18.3205 0.00709595C17.887 0.0202209 17.4807 0.180533 17.1761 0.458532C16.8279 0.776343 16.642 1.22772 16.6527 1.72946L16.7534 6.47407C15.8182 7.71119 14.9944 8.71487 14.2643 9.60431C14.09 9.81668 13.9214 10.022 13.7586 10.2217C13.5824 10.4379 13.6147 10.7561 13.8309 10.9322C14.047 11.1084 14.3651 11.0761 14.5414 10.8599C14.7036 10.6609 14.8714 10.4566 15.0451 10.2451C15.5743 9.60031 16.1525 8.89587 16.7876 8.08531L16.9411 15.3194C16.9074 15.3313 16.8737 15.3422 16.8401 15.3549C14.9025 16.0915 13.9253 18.2672 14.6619 20.2048C14.9569 20.981 15.5366 21.5957 16.294 21.9359C16.5501 22.0509 16.8163 22.1298 17.0864 22.1725L17.1389 24.6524C17.1156 24.6526 17.0923 24.6539 17.0691 24.6539C14.7091 24.6537 12.4805 23.2153 11.5933 20.8817C11.1015 19.5879 10.9795 18.1902 11.2397 16.8385C11.6897 14.9115 12.3992 13.6748 13.326 12.4109C13.4909 12.186 13.4423 11.8699 13.2174 11.7051C12.9923 11.5401 12.6763 11.5887 12.5115 11.8137C11.3276 13.4282 10.6741 14.8181 10.2556 16.6112C10.2556 16.6113 10.2556 16.6117 10.2555 16.6118C10.2541 16.6178 10.2523 16.6234 10.2511 16.6294C9.95084 18.171 10.0885 19.7656 10.6492 21.2407C11.6896 23.9774 14.3026 25.6642 17.0702 25.6641C17.1002 25.6641 17.1303 25.6625 17.1604 25.6621L17.2068 27.8516C17.2426 29.5425 15.8961 30.9474 14.2053 30.9833C13.2043 31.0035 12.3028 30.5396 11.7266 29.8064C11.9085 29.8536 12.0973 29.8784 12.2898 29.8784C12.306 29.8784 12.3222 29.8782 12.3385 29.8779C12.9353 29.8652 13.4913 29.621 13.9043 29.1901C14.3173 28.7592 14.5378 28.1933 14.5251 27.5965C14.4989 26.3647 13.4729 25.3849 12.2437 25.41C11.0119 25.4361 10.031 26.4596 10.0572 27.6914C10.0587 27.7624 10.0637 27.8329 10.0717 27.9026C10.0658 27.9352 10.0631 27.9688 10.0638 28.0032C10.1108 30.2217 11.9305 31.9942 14.139 31.9941C14.1681 31.9941 14.1974 31.9938 14.2267 31.9932C16.4744 31.9455 18.2643 30.078 18.2166 27.8302L18.1687 25.5732C18.6155 25.5001 19.0615 25.3831 19.5006 25.2161C20.414 24.8689 21.2223 24.2876 21.838 23.5353C22.0147 23.3194 21.9828 23.0013 21.767 22.8247C21.5511 22.6481 21.233 22.6798 21.0562 22.8958C20.5523 23.5116 19.8902 23.9874 19.1415 24.272C18.8132 24.3968 18.4805 24.4893 18.1469 24.5524L18.0962 22.164C18.2907 22.13 18.4834 22.0778 18.6719 22.0061C20.0057 21.499 20.6783 20.0015 20.1712 18.6677C20.072 18.407 19.7804 18.2761 19.5197 18.3751C19.259 18.4742 19.128 18.7659 19.2271 19.0266C19.5362 19.8398 19.1262 20.7529 18.313 21.0621C18.2344 21.092 18.1547 21.1163 18.0745 21.1366L17.9677 16.1024C19.5782 15.8753 21.1935 16.7808 21.7952 18.3638C22.1213 19.2217 22.1832 20.1454 21.9742 21.0348C21.9103 21.3063 22.0787 21.5781 22.3502 21.642C22.6215 21.7058 22.8935 21.5375 22.9574 21.266C23.2129 20.1792 23.1375 19.0516 22.7395 18.0045ZM16.7077 21.0145C16.1964 20.7848 15.8051 20.3698 15.606 19.8458C15.0979 18.5095 15.7049 17.0188 16.9639 16.4015L17.0644 21.1374C16.9434 21.1073 16.8239 21.0666 16.7077 21.0145ZM11.067 27.6697C11.0527 26.9947 11.5901 26.4339 12.2652 26.4196C12.274 26.4194 12.2828 26.4193 12.2915 26.4193C12.9547 26.4193 13.5012 26.9516 13.5153 27.6178C13.5223 27.9448 13.4014 28.2549 13.1751 28.491C12.9488 28.7271 12.6441 28.861 12.3171 28.8679C11.9895 28.875 11.68 28.7541 11.4439 28.5277C11.2078 28.3014 11.0739 27.9967 11.067 27.6697ZM17.6624 1.70796C17.6513 1.17903 18.0901 1.02453 18.3512 1.01665C18.3584 1.01647 18.3665 1.01634 18.3753 1.01634C18.5462 1.01634 18.987 1.06909 19.0081 1.60621C19.0449 2.53715 18.6265 3.68114 17.7339 5.08008L17.6624 1.70796Z" fill="white"/>
<path d="M30.7142 19.76C30.4564 19.6505 30.2425 19.593 30.0539 19.5423C29.5442 19.4051 29.263 19.3293 28.5055 17.9671C28.505 17.9661 28.5044 17.9652 28.5038 17.9642C28.5033 17.9632 28.5029 17.9624 28.5024 17.9615C28.5008 17.9587 28.499 17.9562 28.4973 17.9535C28.4909 17.9423 28.4842 17.9314 28.477 17.9208C28.4726 17.9145 28.4679 17.9085 28.4632 17.9024C28.4581 17.8957 28.4531 17.8888 28.4477 17.8823C28.4414 17.8748 28.4347 17.8678 28.428 17.8607C28.4237 17.8561 28.4194 17.8513 28.4149 17.8468C28.4075 17.8396 28.3998 17.8328 28.3921 17.8261C28.3875 17.8221 28.383 17.818 28.3783 17.8142C28.3707 17.808 28.3629 17.8025 28.355 17.7968C28.3495 17.7927 28.3439 17.7887 28.3382 17.7848C28.3311 17.7802 28.3237 17.7759 28.3164 17.7716C28.3094 17.7675 28.3025 17.7633 28.2953 17.7595C28.2888 17.7562 28.2822 17.7532 28.2756 17.75C28.2672 17.746 28.2589 17.7422 28.2502 17.7387C28.2442 17.7362 28.238 17.7342 28.2319 17.7319C28.2227 17.7286 28.2134 17.7252 28.204 17.7224C28.1975 17.7205 28.191 17.719 28.1845 17.7173C28.1753 17.715 28.1662 17.7127 28.1568 17.7109C28.1485 17.7093 28.1402 17.7083 28.1317 17.7071C28.1241 17.706 28.1165 17.7047 28.1088 17.704C28.0967 17.7029 28.0846 17.7025 28.0724 17.7022C28.0686 17.7022 28.0648 17.7016 28.061 17.7016C28.0605 17.7016 28.06 17.7017 28.0595 17.7017C28.0439 17.7017 28.0283 17.7025 28.0128 17.704C28.0115 17.7042 28.0103 17.7041 28.009 17.7042C27.9939 17.7058 27.9787 17.7082 27.9637 17.7112C27.9621 17.7114 27.9605 17.7116 27.959 17.7119C27.9507 17.7137 27.9425 17.7162 27.9342 17.7183C27.9261 17.7203 27.9178 17.7221 27.91 17.7246C27.9083 17.7252 27.9067 17.7259 27.905 17.7264C27.8905 17.7311 27.8763 17.7363 27.8624 17.7422C27.8613 17.7427 27.8601 17.7434 27.859 17.7439C27.8447 17.7501 27.8306 17.7569 27.817 17.7645C27.8165 17.7647 27.8162 17.7648 27.8157 17.7652C27.8123 17.767 27.8092 17.7694 27.8058 17.7713C27.7954 17.7774 27.785 17.7836 27.7751 17.7905C27.7686 17.7949 27.7625 17.7998 27.7563 17.8045C27.7496 17.8096 27.7429 17.8144 27.7365 17.8198C27.729 17.8261 27.7221 17.8327 27.7151 17.8393C27.7104 17.8437 27.7055 17.848 27.701 17.8527C27.6939 17.8598 27.6872 17.8674 27.6807 17.875C27.6765 17.8797 27.6723 17.8844 27.6683 17.8893C27.6623 17.8967 27.6568 17.9043 27.6513 17.9121C27.6472 17.9178 27.643 17.9235 27.6391 17.9294C27.6345 17.9364 27.6303 17.9436 27.6261 17.9508C27.6218 17.958 27.6176 17.9651 27.6138 17.9725C27.6105 17.9788 27.6076 17.9852 27.6045 17.9917C27.6005 18.0002 27.5965 18.0087 27.593 18.0175C27.5906 18.0234 27.5886 18.0294 27.5865 18.0353C27.5831 18.0447 27.5797 18.0542 27.5768 18.0638C27.575 18.07 27.5736 18.0763 27.572 18.0825C27.5696 18.092 27.5671 18.1013 27.5653 18.111C27.5637 18.1189 27.5628 18.127 27.5617 18.135C27.5605 18.143 27.5592 18.1509 27.5584 18.159C27.5573 18.1705 27.557 18.1822 27.5567 18.1938C27.5566 18.1982 27.556 18.2023 27.556 18.2067V18.2105C27.556 18.2112 27.556 18.212 27.556 18.2128V24.2214C27.323 24.1117 27.0632 24.0501 26.7892 24.0501C25.7932 24.0501 24.9829 24.8604 24.9829 25.8563C24.9829 26.8523 25.7932 27.6626 26.7892 27.6626C27.5061 27.6626 28.1267 27.2427 28.4182 26.636C28.5095 26.5446 28.566 26.4184 28.566 26.2791V26.1788C28.5849 26.0741 28.5954 25.9664 28.5954 25.8564C28.5954 25.7463 28.5849 25.6387 28.566 25.534V19.836C28.9822 20.2737 29.3432 20.397 29.7915 20.5176C29.956 20.5619 30.1263 20.6077 30.3198 20.6898C30.9969 20.977 30.99 22.2123 30.9897 22.2301C30.9827 22.5083 31.202 22.74 31.4804 22.7478C31.4852 22.748 31.49 22.748 31.4949 22.748C31.7672 22.748 31.9917 22.5312 31.9994 22.2572C32.0016 22.1785 32.0385 20.3217 30.7142 19.76ZM27.556 26.0679C27.463 26.4045 27.1549 26.6527 26.7892 26.6527C26.3501 26.6527 25.993 26.2955 25.993 25.8564C25.993 25.4174 26.3502 25.0602 26.7892 25.0602C27.1549 25.0602 27.463 25.3084 27.556 25.645V26.0679Z" fill="white"/>
<path d="M11.8764 4.61547C11.7928 4.41453 11.626 4.26097 11.4189 4.19403L6.15723 2.49479C5.80736 2.38185 5.43261 2.53773 5.26643 2.86566L3.00887 7.31771C2.86193 7.13946 2.67931 6.99109 2.46712 6.88346C2.06256 6.67827 1.60244 6.64302 1.17113 6.78396C0.740006 6.92496 0.389569 7.22546 0.184445 7.63002C-0.0207415 8.03458 -0.0559914 8.49477 0.0850081 8.92595C0.226008 9.35708 0.526444 9.70751 0.931005 9.91264C1.17263 10.0352 1.43407 10.0971 1.69725 10.0971C1.87481 10.0971 2.05325 10.0689 2.22687 10.0121C2.658 9.87107 3.00843 9.57057 3.21356 9.16608C3.23968 9.11458 3.263 9.06214 3.28356 9.00889L6.0638 3.52597L10.8107 5.05891L8.6036 9.41151C8.45823 9.2327 8.27441 9.08058 8.05598 8.96976C7.22085 8.54639 6.19686 8.8812 5.77336 9.71645C5.34986 10.5516 5.68486 11.5756 6.51998 11.999C6.76161 12.1216 7.02304 12.1835 7.28623 12.1835C7.46379 12.1835 7.64223 12.1553 7.81585 12.0984C8.24698 11.9574 8.59735 11.657 8.80254 11.2524L11.853 5.23678C11.9515 5.04284 11.96 4.81628 11.8764 4.61547ZM2.35225 8.6127L2.34525 8.62645C2.33131 8.65402 2.32056 8.68227 2.312 8.71083C2.22881 8.87408 2.08725 8.99527 1.91306 9.0522C1.73831 9.10945 1.55175 9.09508 1.38794 9.01195C1.0495 8.84033 0.913755 8.42533 1.08532 8.08689C1.1685 7.92296 1.3105 7.80114 1.48513 7.74402C1.5555 7.72102 1.62781 7.70958 1.69981 7.70958C1.8065 7.70958 1.91244 7.73471 2.01038 7.78433C2.17431 7.86739 2.29606 8.00946 2.35325 8.18414C2.39937 8.32539 2.398 8.4742 2.35225 8.6127ZM7.90192 10.7957C7.73029 11.1342 7.31523 11.2699 6.97686 11.0983C6.63842 10.9267 6.50267 10.5117 6.67423 10.1733C6.79542 9.9342 7.03798 9.79632 7.28917 9.79632C7.39367 9.79632 7.49979 9.8202 7.59923 9.87064C7.93773 10.0423 8.07348 10.4573 7.90192 10.7957Z" fill="white"/>
<path d="M7.98069 19.9712L7.13656 19.5929C6.89975 19.4867 6.71088 19.2979 6.60475 19.0611L6.22638 18.2169C6.14494 18.0353 5.96451 17.9184 5.76557 17.9184C5.56663 17.9184 5.38613 18.0353 5.30476 18.2169L4.92638 19.0611C4.82026 19.2978 4.63145 19.4867 4.39464 19.5928L3.55045 19.9712C3.36883 20.0526 3.25195 20.2331 3.25195 20.432C3.25195 20.6311 3.36883 20.8114 3.55045 20.8928L4.39464 21.2711C4.63145 21.3773 4.82032 21.5661 4.92638 21.8029L5.30476 22.6471C5.38619 22.8288 5.56663 22.9456 5.76557 22.9456C5.96451 22.9456 6.145 22.8288 6.22638 22.6471L6.60482 21.8029C6.71094 21.5662 6.89975 21.3773 7.13656 21.2712L7.98075 20.8928C8.16237 20.8114 8.27925 20.6309 8.27925 20.432C8.27912 20.233 8.16231 20.0526 7.98069 19.9712ZM5.76557 21.2258C5.57932 20.8928 5.30494 20.6183 4.97188 20.4321C5.30494 20.2458 5.57932 19.9714 5.76557 19.6384C5.95182 19.9714 6.22619 20.2458 6.55925 20.4321C6.22619 20.6183 5.95182 20.8928 5.76557 21.2258Z" fill="white"/>
<path d="M26.692 10.1177L25.8479 9.73937C25.6111 9.63319 25.4222 9.44438 25.3161 9.20756L24.9377 8.36338C24.8564 8.18175 24.6759 8.06488 24.4769 8.06488C24.2779 8.06488 24.0974 8.18175 24.0161 8.36338L23.6378 9.20756C23.5317 9.44438 23.3428 9.63319 23.1061 9.73931L22.2619 10.1177C22.0803 10.1991 21.9634 10.3796 21.9634 10.5785C21.9634 10.7776 22.0802 10.9579 22.2619 11.0393L23.106 11.4176C23.3428 11.5238 23.5317 11.7126 23.6378 11.9494L24.0161 12.7935C24.0974 12.9752 24.2779 13.092 24.4769 13.092C24.6759 13.092 24.8564 12.9752 24.9377 12.7935L25.3161 11.9494C25.4222 11.7127 25.6111 11.5239 25.8479 11.4177L26.692 11.0393C26.8737 10.9579 26.9905 10.7774 26.9905 10.5785C26.9905 10.3795 26.8737 10.1991 26.692 10.1177ZM24.477 11.3722C24.2907 11.0394 24.0163 10.7649 23.6833 10.5786C24.0163 10.3922 24.2907 10.1179 24.4769 9.78487C24.6632 10.1179 24.9376 10.3923 25.2706 10.5786C24.9377 10.7649 24.6632 11.0392 24.477 11.3722Z" fill="white"/>
</g>
<defs>
<clipPath id="clip0">
<rect width="32" height="32" fill="white"/>
</clipPath>
</defs>
</svg>
