<svg width="32" height="32" viewBox="0 0 32 32" fill="none" xmlns="http://www.w3.org/2000/svg">
<g clip-path="url(#clip0)">
<path d="M31.4837 20.6454H30.9676V14.9682C30.9676 14.6826 30.7365 14.452 30.4515 14.452H27.5685L17.2461 4.12968L18.9457 2.43012C19.1475 2.22826 19.1475 1.90191 18.9457 1.7003L17.3973 0.151945C17.1954 -0.0499158 16.8693 -0.0499158 16.6675 0.151945L2.36737 14.452H1.54884C1.26407 14.452 1.03272 14.6826 1.03272 14.9682V20.6454H0.516607C0.231834 20.6454 0.000488281 20.876 0.000488281 21.1616V24.2583C0.000488281 24.5435 0.231834 24.7744 0.516607 24.7744H1.06851L1.55036 31.5205C1.56951 31.7909 1.79455 32 2.06496 32H4.12943C4.39984 32 4.62489 31.7909 4.64454 31.5205L5.12614 24.7744H26.8744L27.3563 31.5205C27.3754 31.7909 27.6005 32 27.8709 32H29.9353C30.2058 32 30.4308 31.7909 30.4505 31.5205L30.932 24.7744H31.4837C31.7687 24.7744 31.9998 24.5435 31.9998 24.2583V21.1616C31.9998 20.876 31.7687 20.6454 31.4837 20.6454ZM26.1088 14.452H20.6452V13.4198C20.6452 13.2825 20.591 13.1514 20.494 13.0549L18.9457 11.5065C18.8491 11.4095 18.7176 11.3553 18.5807 11.3553H11.8712C11.5864 11.3553 11.3551 11.5859 11.3551 11.8714V14.452H6.92373L16.5163 4.8595L26.1088 14.452ZM12.3873 16.5165V12.3876H15.484V16.5165H12.3873ZM16.5163 12.3876H18.367L19.613 13.6335V16.5165H16.5163V12.3876ZM17.0324 1.24668L17.8509 2.06521L5.46408 14.452H3.82702L17.0324 1.24668ZM2.06496 15.4843H11.3551V17.0326C11.3551 17.3179 11.5864 17.5487 11.8712 17.5487H20.1291C20.4141 17.5487 20.6452 17.3179 20.6452 17.0326V15.4843H29.9353V20.6454H28.9031V19.0971C28.9031 18.8116 28.672 18.581 28.387 18.581H3.61332C3.32854 18.581 3.0972 18.8116 3.0972 19.0971V20.6454H2.06496V15.4843ZM4.12943 20.6454V19.6132H6.19391V20.6454H4.12943ZM7.22614 19.6132H8.25838V20.6454H7.22614V19.6132ZM9.29062 19.6132H10.3229V20.6454H9.29062V19.6132ZM11.3551 19.6132H12.3873V20.6454H11.3551V19.6132ZM13.4196 19.6132H14.4518V20.6454H13.4196V19.6132ZM15.484 19.6132H16.5163V20.6454H15.484V19.6132ZM17.5485 19.6132H18.5807V20.6454H17.5485V19.6132ZM19.613 19.6132H20.6452V20.6454H19.613V19.6132ZM21.6775 19.6132H22.7097V20.6454H21.6775V19.6132ZM23.7419 19.6132H24.7742V20.6454H23.7419V19.6132ZM25.8064 19.6132H27.8709V20.6454H25.8064V19.6132ZM2.54555 30.9678L2.47171 29.9356H3.72218L3.6486 30.9678H2.54555ZM3.79602 28.9033H2.39837L2.10377 24.7744H4.09188L3.79602 28.9033ZM28.3515 30.9678L28.2776 29.9356H29.5281L29.4545 30.9678H28.3515ZM29.6024 28.9033H28.2043L27.9097 24.7744H29.8978L29.6024 28.9033ZM30.9676 23.7422H1.03272V21.6777H30.9676V23.7422Z" fill="white"/>
<path d="M23.7422 7.74254C24.596 7.74254 25.2905 7.04775 25.2905 6.19419V2.42284L28.3872 1.26158V3.70835C28.2252 3.65064 28.0528 3.61359 27.8711 3.61359C27.0176 3.61359 26.3228 4.30814 26.3228 5.16195C26.3228 6.01551 27.0176 6.7103 27.8711 6.7103C28.7249 6.7103 29.4195 6.01551 29.4195 5.16195V0.516885C29.4195 0.347534 29.3366 0.189019 29.1977 0.0924991C29.0578 -0.00402105 28.8812 -0.026198 28.7222 0.0337806L24.5932 1.58214C24.3921 1.65749 24.2583 1.85002 24.2583 2.06524V4.74059C24.0963 4.68288 23.9239 4.64583 23.7422 4.64583C22.8886 4.64583 22.1938 5.34037 22.1938 6.19419C22.1938 7.04775 22.8886 7.74254 23.7422 7.74254ZM27.8711 5.67807C27.5869 5.67807 27.355 5.44672 27.355 5.16195C27.355 4.87693 27.5869 4.64583 27.8711 4.64583C28.1557 4.64583 28.3872 4.87693 28.3872 5.16195C28.3872 5.44672 28.1557 5.67807 27.8711 5.67807ZM23.7422 5.67807C24.0267 5.67807 24.2583 5.90916 24.2583 6.19419C24.2583 6.47896 24.0267 6.7103 23.7422 6.7103C23.4579 6.7103 23.2261 6.47896 23.2261 6.19419C23.2261 5.90916 23.4579 5.67807 23.7422 5.67807Z" fill="white"/>
<path d="M2.58107 7.74264C3.43488 7.74264 4.12942 7.04785 4.12942 6.19429V1.76293L5.82899 3.46249L6.55881 2.73267L3.97822 0.152077C3.83004 0.00389417 3.60827 -0.0409638 3.41573 0.0399318C3.22319 0.119567 3.09719 0.308323 3.09719 0.516988V4.74069C2.93514 4.68298 2.76277 4.64593 2.58107 4.64593C1.72751 4.64593 1.03271 5.34048 1.03271 6.19429C1.03271 7.04785 1.72751 7.74264 2.58107 7.74264ZM2.58107 5.67817C2.86559 5.67817 3.09719 5.90926 3.09719 6.19429C3.09719 6.47906 2.86559 6.71041 2.58107 6.71041C2.2968 6.71041 2.06495 6.47906 2.06495 6.19429C2.06495 5.90926 2.2968 5.67817 2.58107 5.67817Z" fill="white"/>
<path d="M0.516602 8.77478H2.58112V9.80704H0.516602V8.77478Z" fill="white"/>
<path d="M5.67773 5.16193H6.70999V7.22644H5.67773V5.16193Z" fill="white"/>
<path d="M7.22607 1.03296H9.29059V2.06521H7.22607V1.03296Z" fill="white"/>
<path d="M21.1611 0.516907H22.1934V2.58142H21.1611V0.516907Z" fill="white"/>
<path d="M27.355 7.74249H29.4195V8.77475H27.355V7.74249Z" fill="white"/>
<path d="M30.9678 4.64581H32V6.71033H30.9678V4.64581Z" fill="white"/>
<path d="M25.4414 10.1722L26.1712 9.44208L27.7196 10.9907L26.9898 11.7206L25.4414 10.1722Z" fill="white"/>
</g>
<defs>
<clipPath id="clip0">
<rect width="32" height="32" fill="white"/>
</clipPath>
</defs>
</svg>
