<svg width="32" height="32" viewBox="0 0 32 32" fill="none" xmlns="http://www.w3.org/2000/svg">
<g clip-path="url(#clip0)">
<path d="M7.22445 15.4666C6.8722 15.2444 6.56126 14.9627 6.30551 14.6341C6.02382 14.2062 5.97421 13.6661 6.17325 13.1941C6.26889 12.9202 6.12815 12.6202 5.85645 12.5186C5.58475 12.4171 5.28171 12.5513 5.17431 12.8207C4.8482 13.633 4.95199 14.5547 5.45058 15.2741C5.78047 15.7053 6.18424 16.0746 6.64311 16.3647C6.89112 16.5253 7.22231 16.4543 7.38285 16.2063C7.54338 15.9583 7.47246 15.6271 7.22445 15.4666Z" fill="white"/>
<path d="M21.8477 16.0437C21.2867 16.0554 20.7304 15.9386 20.2215 15.7024C19.8646 15.4863 19.6365 15.1087 19.6114 14.6922C19.5923 14.5026 19.4736 14.3376 19.2999 14.2593C19.1261 14.181 18.9239 14.2014 18.7692 14.3127C18.6145 14.424 18.531 14.6093 18.55 14.7989C18.6102 15.5776 19.0571 16.2742 19.7399 16.6533C20.3985 16.964 21.1195 17.1198 21.8477 17.1088C22.1422 17.1088 22.381 16.87 22.381 16.5754C22.381 16.2809 22.1422 16.0421 21.8477 16.0421V16.0437Z" fill="white"/>
<path d="M26.8759 26.8341L24.949 18.6447C26.1688 18.1881 27.2391 17.404 28.0423 16.3786C28.9254 15.156 29.1233 13.5672 28.5671 12.1653L25.1991 3.25862C25.0211 2.79088 24.525 2.52644 24.0375 2.63942L16.237 4.47302C16.1543 4.49331 16.0746 4.52452 16.0002 4.56582C15.9258 4.52474 15.8463 4.49355 15.7639 4.47302L7.96389 2.63782C7.47669 2.52532 6.98116 2.78936 6.80282 3.25648L3.43482 12.1647C2.8783 13.5666 3.07621 15.1556 3.95962 16.3781C4.7628 17.4035 5.83312 18.1876 7.05295 18.6442L5.12442 26.8341C2.95802 26.6058 1.10255 27.0847 0.282819 28.0821C0.0639822 28.3469 -0.00249651 28.7061 0.107028 29.0317C0.216553 29.3573 0.486538 29.6033 0.820952 29.6821L4.78255 30.6143L6.59109 31.041L10.5511 31.9727C10.6265 31.9903 10.7036 31.9992 10.781 31.9994C11.0835 31.9989 11.3692 31.8606 11.5573 31.6237C11.7454 31.3868 11.8154 31.0771 11.7474 30.7823C11.4578 29.5215 10.0119 28.2687 7.96869 27.5034L9.92015 19.2288C9.99642 19.2288 10.0748 19.2421 10.1506 19.2421C11.2151 19.2572 12.2685 19.0237 13.2268 18.5599C14.5619 17.8584 15.4467 16.5241 15.5735 15.0213L16.0002 10.7829L16.4268 15.0213C16.5536 16.5241 17.4384 17.8584 18.7735 18.5599C19.7313 19.0243 20.7843 19.2586 21.8487 19.2442C21.9244 19.2442 22.0028 19.233 22.0791 19.2309L24.0284 27.504C21.9852 28.2666 20.5394 29.5221 20.2508 30.7791C20.1815 31.0743 20.2507 31.3849 20.4387 31.6226C20.6267 31.8604 20.913 31.9994 21.2162 31.9999C21.2937 31.9997 21.371 31.9908 21.4466 31.9733L25.4066 31.0399L27.2151 30.6133L31.1762 29.6815C31.511 29.6035 31.7817 29.3578 31.8918 29.0321C32.0019 28.7063 31.9358 28.3468 31.717 28.0815C30.8983 27.0853 29.045 26.6058 26.8759 26.8341ZM24.221 3.69008L26.4146 9.49328C26.0001 9.71124 25.5583 9.87268 25.101 9.97328C24.2004 10.2089 23.2516 10.1845 22.3644 9.90288C21.3136 9.58011 20.194 9.5539 19.1292 9.82715C18.3924 9.9829 17.6923 10.2786 17.0668 10.6981L16.542 5.49755L24.221 3.69008ZM7.77935 3.69008L15.4594 5.49755L14.9346 10.6981C14.3086 10.2777 13.6077 9.98146 12.87 9.82555C11.8051 9.55201 10.6853 9.57822 9.63428 9.90128C8.7473 10.1831 7.79858 10.2075 6.89829 9.97168C6.44077 9.87108 5.9988 9.70964 5.58415 9.49168L7.77935 3.69008ZM6.91962 27.3205C6.80708 27.8138 7.07935 28.3138 7.55482 28.4869C9.16389 29.0799 10.3938 30.0378 10.6786 30.9066L1.18522 28.6735C1.82522 28.024 3.35322 27.7135 5.06042 27.9002C5.56402 27.9592 6.03204 27.6319 6.14949 27.1386L8.06949 18.9727C8.12282 18.9866 8.17615 19.0042 8.22682 19.0165C8.43269 19.065 8.63962 19.0927 8.84655 19.1231L6.91962 27.3205ZM12.7426 17.6058C11.4044 18.2179 9.89617 18.3498 8.47215 17.9791C7.03167 17.6772 5.73966 16.8871 4.81455 15.7423C4.15771 14.8076 4.01444 13.6053 4.43322 12.5423L5.20762 10.4938C5.6676 10.7244 6.15381 10.8985 6.65562 11.0122C7.72348 11.2869 8.84654 11.2607 9.90042 10.9365C10.7839 10.6526 11.7303 10.628 12.6274 10.8656C13.438 11.0269 14.1912 11.4005 14.8103 11.9482L14.5111 14.9125C14.4115 16.0504 13.7471 17.0622 12.7426 17.6058ZM19.2578 17.6058C18.2528 17.0619 17.5883 16.0493 17.4892 14.9109L17.19 11.9466C17.8092 11.3988 18.5627 11.0252 19.3735 10.864C20.2704 10.6265 21.2165 10.6511 22.0999 10.9349C23.154 11.2589 24.2772 11.2851 25.3452 11.0106C25.8469 10.8965 26.3331 10.7225 26.7932 10.4922L27.5671 12.5397C27.9856 13.6027 27.8423 14.8048 27.1858 15.7397C26.2607 16.8844 24.9686 17.6745 23.5282 17.9765C22.1045 18.3487 20.596 18.2178 19.2578 17.6058ZM21.3212 30.9066C21.6034 30.0405 22.8343 29.081 24.4455 28.4869C24.9212 28.3137 25.1935 27.8135 25.0807 27.3199L23.1532 19.1253C23.3602 19.0927 23.5671 19.065 23.773 19.0186C23.8263 19.0063 23.8796 18.9887 23.933 18.9749L25.853 27.1418C25.9719 27.6337 26.4387 27.9599 26.9415 27.9023C28.645 27.7168 30.1735 28.025 30.8167 28.6757L21.3212 30.9066Z" fill="white"/>
<path d="M13.362 0.0383676C12.7957 -0.096301 12.2016 0.0972579 11.8233 0.539701C11.5195 0.882009 11.3768 1.33805 11.4313 1.7925C11.5647 2.60663 12.2698 3.20322 13.0948 3.19997C13.3618 3.20749 13.6219 3.28611 13.8484 3.4277C14.014 3.53168 14.2054 3.58712 14.4009 3.5877C14.7337 3.58558 15.0465 3.42892 15.2475 3.16375C15.4486 2.89859 15.5149 2.55505 15.4271 2.2341C14.9663 0.597301 14.0297 0.133301 13.362 0.0383676ZM14.4121 2.52317C14.0291 2.28525 13.5903 2.15193 13.1396 2.1365C12.8511 2.12423 12.5252 1.9557 12.4911 1.6661C12.4718 1.51436 12.5195 1.36174 12.6217 1.24797C12.7223 1.13344 12.8672 1.06744 13.0196 1.06663C13.0712 1.0686 13.1225 1.07575 13.1727 1.08797C13.7423 1.16957 14.1551 1.65277 14.4132 2.5237L14.4121 2.52317Z" fill="white"/>
<path d="M18.676 0.0319611C17.9736 0.133294 17.0344 0.597295 16.5736 2.23409C16.4532 2.65556 16.6042 3.10765 16.9537 3.37221C17.3031 3.63678 17.7792 3.65945 18.1522 3.42929C18.3787 3.28705 18.6391 3.20787 18.9064 3.19996C19.7317 3.20283 20.4367 2.60546 20.5693 1.79089C20.623 1.33679 20.4802 0.881363 20.1768 0.539245C19.8734 0.197128 19.4383 0.000903615 18.981 -3.88704e-05C18.8785 -0.000616956 18.7762 0.0101145 18.676 0.0319611ZM19.5101 1.66556C19.476 1.95516 19.1501 2.12369 18.8621 2.13596C18.4167 2.15123 17.9829 2.28169 17.6029 2.51463C17.8482 1.64956 18.2605 1.16903 18.8648 1.08103C18.9029 1.07217 18.9419 1.06735 18.981 1.06663C19.1336 1.06715 19.2786 1.13296 19.3794 1.24743C19.4817 1.3612 19.5294 1.51382 19.5101 1.66556Z" fill="white"/>
<path d="M13.8668 6.93331C14.1614 6.93331 14.4002 6.69452 14.4002 6.39997C14.4002 6.10542 14.1614 5.86664 13.8668 5.86664C13.5723 5.86664 13.3335 6.10542 13.3335 6.39997C13.3335 6.69452 13.5723 6.93331 13.8668 6.93331Z" fill="white"/>
<path d="M9.59974 1.59999C9.89429 1.59999 10.1331 1.36121 10.1331 1.06666C10.1331 0.772107 9.89429 0.533325 9.59974 0.533325C9.30519 0.533325 9.06641 0.772107 9.06641 1.06666C9.06641 1.36121 9.30519 1.59999 9.59974 1.59999Z" fill="white"/>
<path d="M18.1334 6.93331C18.428 6.93331 18.6668 6.69452 18.6668 6.39997C18.6668 6.10542 18.428 5.86664 18.1334 5.86664C17.8389 5.86664 17.6001 6.10542 17.6001 6.39997C17.6001 6.69452 17.8389 6.93331 18.1334 6.93331Z" fill="white"/>
<path d="M19.7335 8.53327C20.0281 8.53327 20.2668 8.29449 20.2668 7.99994C20.2668 7.70539 20.0281 7.46661 19.7335 7.46661C19.439 7.46661 19.2002 7.70539 19.2002 7.99994C19.2002 8.29449 19.439 8.53327 19.7335 8.53327Z" fill="white"/>
<path d="M5.33319 2.13331C5.54887 2.13326 5.74329 2.00332 5.82582 1.80406C5.90835 1.6048 5.86275 1.37544 5.71026 1.22291L4.64359 0.156244C4.43432 -0.0458747 4.10168 -0.0429841 3.89596 0.162741C3.69023 0.368465 3.68734 0.701108 3.88946 0.910377L4.95613 1.97704C5.05612 2.07707 5.19176 2.13328 5.33319 2.13331Z" fill="white"/>
<path d="M2.66663 2.66663C2.37208 2.66663 2.1333 2.90541 2.1333 3.19996C2.1333 3.49451 2.37208 3.73329 2.66663 3.73329H4.26663C4.56118 3.73329 4.79996 3.49451 4.79996 3.19996C4.79996 2.90541 4.56118 2.66663 4.26663 2.66663H2.66663Z" fill="white"/>
<path d="M27.3564 0.156244L26.2898 1.22291C26.1511 1.35682 26.0955 1.55511 26.1443 1.74158C26.1932 1.92805 26.3388 2.07367 26.5252 2.12248C26.7117 2.17129 26.91 2.11569 27.0439 1.97704L28.1106 0.910377C28.3127 0.701108 28.3098 0.368465 28.1041 0.162741C27.8984 -0.0429841 27.5657 -0.0458747 27.3564 0.156244Z" fill="white"/>
<path d="M27.2002 3.19996C27.2002 3.49451 27.439 3.73329 27.7335 3.73329H29.3335C29.6281 3.73329 29.8669 3.49451 29.8669 3.19996C29.8669 2.90541 29.6281 2.66663 29.3335 2.66663H27.7335C27.439 2.66663 27.2002 2.90541 27.2002 3.19996Z" fill="white"/>
</g>
<defs>
<clipPath id="clip0">
<rect width="32" height="32" fill="white"/>
</clipPath>
</defs>
</svg>
