<svg width="32" height="32" viewBox="0 0 32 32" fill="none" xmlns="http://www.w3.org/2000/svg">
<path d="M10 11.125C9.5175 11.125 9.125 11.5175 9.125 12C9.125 12.4825 9.5175 12.875 10 12.875C10.4825 12.875 10.875 12.4825 10.875 12C10.875 11.5175 10.4825 11.125 10 11.125ZM9.875 12C9.875 11.931 9.931 11.875 10 11.875C10.069 11.875 10.125 11.931 10.125 12C10.125 12.1375 9.875 12.1375 9.875 12Z" fill="white"/>
<path d="M15 12.875C15.4825 12.875 15.875 12.4825 15.875 12C15.875 11.5175 15.4825 11.125 15 11.125C14.5175 11.125 14.125 11.5175 14.125 12C14.125 12.4825 14.5175 12.875 15 12.875ZM15 11.875C15.069 11.875 15.125 11.931 15.125 12C15.125 12.1375 14.875 12.1375 14.875 12C14.875 11.931 14.931 11.875 15 11.875Z" fill="white"/>
<path d="M12.5 16.875C13.534 16.875 14.375 16.0335 14.375 15C14.375 14.793 14.207 14.625 14 14.625H11C10.793 14.625 10.625 14.793 10.625 15C10.625 16.0335 11.466 16.875 12.5 16.875ZM13.561 15.375C13.406 15.8115 12.989 16.125 12.5 16.125C12.011 16.125 11.594 15.8115 11.439 15.375H13.561Z" fill="white"/>
<path d="M27.655 17.022L27.3865 15.0265C27.8955 14.161 28.0845 13.1055 27.829 12.0555C27.3075 9.9125 25.138 8.5925 22.9965 9.1145C21.8275 9.399 20.9065 10.1755 20.3925 11.1685C20.152 10.49 19.51 10 18.75 10H18.5V8.618C20.5455 7.8155 22 5.8265 22 3.5C22 2.397 21.103 1.5 20 1.5C19.4115 1.5 18.215 1.765 17.345 2.1355C15.969 1.4305 13.562 1 12 1C9.72498 1 7.94648 1.845 7.57248 3.0305C6.11998 3.2385 4.99998 4.4905 4.99998 6C4.99998 7.921 5.22698 9.2895 5.67448 10.105C4.99298 10.3445 4.49998 10.988 4.49998 11.75C4.49998 12.715 5.28498 13.5 6.24998 13.5H6.49998V14.5945C6.49998 15.6365 6.95898 16.6165 7.75948 17.2835C7.78398 17.304 7.81098 17.322 7.83948 17.3375L9.49998 18.248V19.604C6.81348 20.2445 1.49998 21.7365 1.50098 23.536L2.00098 30.536C2.01998 30.7975 2.23798 31 2.49998 31H24.3335C24.568 31 24.771 30.8375 24.8215 30.6085L26.228 24.28L26.549 24.202L28.04 25.961C28.3485 26.3255 28.4875 26.805 28.421 27.278C28.3545 27.751 28.0885 28.1735 27.6915 28.4385C26.9455 28.9355 26.5 29.7675 26.5 30.664V31H27.5V30.664C27.5 30.103 27.779 29.582 28.246 29.2705C28.8805 28.847 29.305 28.172 29.4115 27.417C29.518 26.662 29.296 25.896 28.803 25.3145L27.636 23.938L28.119 23.8205C28.3675 23.76 28.5305 23.5215 28.4965 23.268L28.425 22.7375C29.062 22.386 29.5 21.715 29.5 20.937V19.063C29.5 18 28.689 17.133 27.655 17.022ZM27.063 23H27.2595L25.404 23.451L23.0605 16.899C23.3475 16.9645 23.6425 17.0015 23.943 17.0015C24.255 17.0015 24.5715 16.9645 24.888 16.8875C25.509 16.7365 26.058 16.4435 26.516 16.0565L26.6485 17.0415C25.709 17.234 25 18.067 25 19.063V20.937C25 22.0745 25.9255 23 27.063 23ZM21.837 15.1315C22.074 15.1555 22.3135 15.172 22.556 15.172C23.1665 15.172 23.7915 15.0965 24.415 14.9445C25.292 14.731 26.0915 14.3725 26.7965 13.911C26.4875 14.8735 25.7035 15.66 24.6515 15.916C23.606 16.1705 22.5535 15.837 21.837 15.1315ZM23.233 10.086C23.4705 10.0285 23.708 10.0005 23.942 10.0005C25.2935 10.0005 26.524 10.922 26.857 12.2915C26.8795 12.385 26.897 12.4785 26.9105 12.572C26.1795 13.2195 25.2245 13.718 24.1785 13.9725C23.1325 14.227 22.0555 14.2225 21.1085 13.9835C21.0775 13.8945 21.05 13.8035 21.027 13.71C20.6365 12.1025 21.626 10.477 23.233 10.086ZM20.0555 13.9465C20.311 14.997 20.9635 15.848 21.8135 16.383L22.6435 18.7035L21.2615 17.8745C20.767 17.5775 20.1375 17.6555 19.73 18.063C19.4815 18.3115 19.348 18.6555 19.364 19.0065C19.38 19.358 19.544 19.688 19.814 19.913L21.487 21.3075C21.578 21.3835 21.6545 21.4715 21.723 21.565C20.0875 20.7855 17.193 20.019 15.4995 19.6065V18.248L17.1605 17.338C17.189 17.3225 17.2155 17.3045 17.2405 17.284C18.041 16.6165 18.5 15.6365 18.5 14.5945V13.5H18.75C19.2135 13.5 19.633 13.3155 19.9465 13.0205C19.9475 13.3265 19.9805 13.6365 20.0555 13.9465ZM10.5 18.7715C10.864 18.92 11.255 19 11.649 19H13.351C13.745 19 14.136 18.92 14.5 18.7715V20.784C13.9465 21.2705 13.2435 21.536 12.5 21.536C11.7565 21.536 11.0535 21.2705 10.5 20.784V18.7715ZM18.75 11C19.1635 11 19.5 11.3365 19.5 11.75C19.5 12.1635 19.1635 12.5 18.75 12.5H18.5V11H18.75ZM7.99998 4C8.27598 4 8.49998 3.7765 8.49998 3.5C8.49998 2.792 9.99698 2 12 2C13.498 2 15.948 2.462 17.0695 3.1245C17.214 3.2105 17.3915 3.2175 17.543 3.144C18.3375 2.757 19.548 2.5 20 2.5C20.5515 2.5 21 2.9485 21 3.5C21 5.9815 18.981 8 16.5 8H14.5C13.5625 8 12.6615 7.7105 11.894 7.163C11.728 7.046 11.5075 7.039 11.335 7.1485L6.88748 9.979C6.42948 9.805 5.99998 8.555 5.99998 6C5.99998 4.897 6.89698 4 7.99998 4ZM6.24998 12.5C5.83648 12.5 5.49998 12.1635 5.49998 11.75C5.49998 11.3365 5.83648 11 6.24998 11H6.49998V12.5H6.24998ZM7.49998 14.5945V10.7745L11.597 8.167C12.4705 8.713 13.467 9 14.5 9H16.5C16.842 9 17.175 8.9645 17.5 8.9045V14.595C17.5 15.324 17.186 16.01 16.636 16.4855L14.329 17.7495C14.03 17.9135 13.6915 18 13.351 18H11.649C11.3085 18 10.9705 17.9135 10.671 17.7495L8.36398 16.4855C7.81398 16.01 7.49998 15.3235 7.49998 14.5945ZM2.49998 23.5C2.49998 22.8755 5.76448 21.5525 9.49998 20.634V21C9.49998 21.133 9.55248 21.26 9.64648 21.3535C10.4085 22.1155 11.422 22.5355 12.5 22.5355C13.578 22.5355 14.5915 22.1155 15.3535 21.3535C15.4475 21.26 15.5 21.133 15.5 21V20.6365C18.2645 21.3245 21.207 22.2525 21.894 22.773L20.1085 30H19V26.5H18V30H6.99998V26.5H5.99998V30H2.96548L2.49998 23.5ZM23.932 30H21.1405L22.4865 24.6155L22.9865 22.517C22.9955 22.4795 23 22.4405 23 22.4015C23 21.68 22.682 21.0005 22.1275 20.5385L20.4545 19.144C20.3795 19.082 20.3655 19.0025 20.3635 18.9605C20.3615 18.919 20.3685 18.8385 20.4375 18.7695C20.5205 18.6875 20.648 18.672 20.7475 18.7315L22.345 19.69C22.5765 19.8285 22.8315 19.919 23.0955 19.9645L24.6145 24.212C24.687 24.4145 24.878 24.5435 25.085 24.5435C25.1055 24.5435 25.126 24.5385 25.147 24.536L23.932 30ZM28.5 20.937C28.5 21.523 28.023 22 27.437 22H27.063C26.477 22 26 21.523 26 20.937V19.063C26 18.477 26.477 18 27.063 18H27.437C28.023 18 28.5 18.477 28.5 19.063V20.937Z" fill="white"/>
<path d="M27 5.94454V2.34504L28.6085 1.98804L28.3915 1.01154L26.3915 1.45604C26.163 1.50704 26 1.71004 26 1.94454V4.53654C25.843 4.48054 25.676 4.44454 25.5 4.44454C24.673 4.44454 24 5.11754 24 5.94454C24 6.77154 24.673 7.44454 25.5 7.44454C26.327 7.44454 27 6.77154 27 5.94454ZM25 5.94454C25 5.66854 25.2245 5.44454 25.5 5.44454C25.7755 5.44454 26 5.66854 26 5.94454C26 6.22054 25.7755 6.44454 25.5 6.44454C25.2245 6.44454 25 6.22004 25 5.94454Z" fill="white"/>
<path d="M30 8.092C29.843 8.036 29.676 8 29.5 8C28.673 8 28 8.673 28 9.5C28 10.327 28.673 11 29.5 11C30.327 11 31 10.327 31 9.5V5.5H30V8.092ZM29.5 10C29.2245 10 29 9.776 29 9.5C29 9.224 29.2245 9 29.5 9C29.7755 9 30 9.224 30 9.5C30 9.776 29.7755 10 29.5 10Z" fill="white"/>
</svg>
