<svg width="32" height="32" viewBox="0 0 32 32" fill="none" xmlns="http://www.w3.org/2000/svg">
<g clip-path="url(#clip0)">
<path d="M31.5655 8.34611C31.2862 8.30436 31.0266 8.49642 30.9848 8.77536L29.5181 18.5532H25.9768L25.9028 16.851H26.0503C26.1896 16.851 26.3228 16.7941 26.4191 16.6935C26.5155 16.5929 26.5665 16.4574 26.5605 16.3182L26.383 12.2331C26.371 11.96 26.1461 11.7447 25.8728 11.7447H21.6175V9.95473C22.2118 9.74392 22.6387 9.1763 22.6387 8.51067V6.80854C22.6387 6.52648 22.4101 6.29792 22.1281 6.29792H20.0855C19.8035 6.29792 19.5749 6.52648 19.5749 6.80854V8.51067C19.5749 9.17636 20.0018 9.74398 20.5961 9.95473V11.7447H17.8728V6.80854C17.8728 5.95317 17.296 5.23048 16.5111 5.00754V2.04261C16.5111 1.76054 16.2825 1.53198 16.0005 1.53198C15.7185 1.53198 15.4898 1.76054 15.4898 2.04261V5.00754C14.705 5.23048 14.1281 5.95317 14.1281 6.80854V11.7447H11.4048V9.95473C11.9991 9.74392 12.426 9.1763 12.426 8.51067V6.80854C12.426 6.52648 12.1974 6.29792 11.9154 6.29792H9.87283C9.59083 6.29792 9.3622 6.52648 9.3622 6.80854V8.51067C9.3622 9.17636 9.78914 9.74398 10.3835 9.95473V11.7447H6.12814C5.8547 11.7447 5.62989 11.96 5.61795 12.2331L5.44039 16.3182C5.43439 16.4574 5.48539 16.5929 5.58177 16.6935C5.67808 16.7942 5.81133 16.851 5.95058 16.851H6.09814L6.02414 18.5532H2.48283L1.01614 8.77536C0.974265 8.49642 0.714703 8.30417 0.43539 8.34611C0.156515 8.38792 -0.0356095 8.64798 0.006203 8.92679L1.53245 19.1019V29.9573C1.53245 30.2394 1.76108 30.4679 2.04308 30.4679C2.32508 30.4679 2.5537 30.2394 2.5537 29.9573V21.6169H5.89089L5.61801 27.8925C5.61201 28.0317 5.66301 28.1673 5.75933 28.2679C5.85564 28.3685 5.98889 28.4254 6.12814 28.4254C6.75908 28.4254 7.25045 28.3405 7.66008 28.2152V29.9573C7.66008 30.2394 7.8887 30.4679 8.1707 30.4679C8.4527 30.4679 8.68133 30.2394 8.68133 29.9573V27.7695C8.73595 27.7399 8.78995 27.7102 8.84295 27.681C9.34195 27.4057 9.78558 27.1622 10.5538 27.0876V29.9573C10.5538 30.2394 10.7824 30.4679 11.0644 30.4679C11.3464 30.4679 11.575 30.2394 11.575 29.9573V27.0876C12.3433 27.1622 12.7868 27.4057 13.2858 27.681C13.9183 28.0299 14.6351 28.4254 16.0006 28.4254C17.3662 28.4254 18.083 28.0299 18.7154 27.681C19.2143 27.4058 19.6578 27.1623 20.4258 27.0877V29.9573C20.4258 30.2394 20.6544 30.4679 20.9364 30.4679C21.2184 30.4679 21.447 30.2394 21.447 29.9573V27.0876C22.2153 27.1622 22.659 27.4057 23.1581 27.681C23.2111 27.7102 23.265 27.7399 23.3195 27.7695V29.9574C23.3195 30.2395 23.5481 30.468 23.8301 30.468C24.1121 30.468 24.3408 30.2395 24.3408 29.9574V28.2152C24.7504 28.3405 25.2417 28.4255 25.8727 28.4255C26.012 28.4255 26.1452 28.3685 26.2415 28.268C26.3378 28.1674 26.3888 28.0318 26.3829 27.8926L26.1101 21.617H29.4472V29.9574C29.4472 30.2394 29.6758 30.468 29.9578 30.468C30.2398 30.468 30.4685 30.2394 30.4685 29.9574V19.1019L31.9947 8.92686C32.0365 8.64798 31.8444 8.38786 31.5655 8.34611ZM5.93527 20.5957H2.5537V19.5744H5.97964L5.93527 20.5957ZM20.5961 7.31917H21.6174V8.51067C21.6174 8.79229 21.3883 9.0213 21.1068 9.0213C20.8252 9.0213 20.5961 8.79223 20.5961 8.51067V7.31917ZM15.1494 6.80854C15.1494 6.33923 15.5311 5.95748 16.0005 5.95748C16.4698 5.95748 16.8515 6.33923 16.8515 6.80854V11.7447H15.1494V6.80854ZM10.3835 7.31917H11.4047V8.51067C11.4047 8.79229 11.1756 9.0213 10.8941 9.0213C10.6125 9.0213 10.3835 8.79223 10.3835 8.51067V7.31917ZM23.3253 16.8511H24.8806L25.3384 27.3787C24.5841 27.3015 24.1455 27.0594 23.6515 26.7869C23.0191 26.438 22.3023 26.0425 20.9368 26.0425C19.571 26.0426 18.8544 26.438 18.222 26.7869C17.6216 27.1181 17.1031 27.4042 16.0007 27.4042C14.8981 27.4042 14.3796 27.1181 13.7792 26.7869C13.1468 26.438 12.43 26.0425 11.0643 26.0425C9.69876 26.0425 8.98195 26.438 8.34951 26.7869C8.20727 26.8654 8.06958 26.9411 7.92758 27.0114C7.5762 27.1851 7.19933 27.3237 6.66245 27.3787L7.1202 16.8511H21.2826C21.5646 16.8511 21.7932 16.6225 21.7932 16.3405C21.7932 16.0584 21.5646 15.8299 21.2826 15.8299H6.48389L6.61714 12.766H25.3838L25.5171 15.8299H23.3253C23.0433 15.8299 22.8146 16.0584 22.8146 16.3405C22.8146 16.6225 23.0433 16.8511 23.3253 16.8511ZM29.4473 20.5957H26.0657L26.0213 19.5744H29.4473V20.5957Z" fill="white"/>
</g>
<defs>
<clipPath id="clip0">
<rect width="32" height="32" fill="white"/>
</clipPath>
</defs>
</svg>
