<svg width="32" height="32" viewBox="0 0 32 32" fill="none" xmlns="http://www.w3.org/2000/svg">
<g clip-path="url(#clip0)">
<path d="M9.752 18.5223C10.0466 18.5223 10.3236 18.637 10.5319 18.8454C10.6498 18.9632 10.8042 19.0222 10.9586 19.0221C11.113 19.0221 11.2675 18.9632 11.3853 18.8454C11.6211 18.6097 11.6211 18.2277 11.3853 17.992C10.9491 17.5557 10.369 17.3154 9.75207 17.3154C9.13514 17.3154 8.55509 17.5557 8.1188 17.992C7.88309 18.2276 7.88309 18.6096 8.1188 18.8454C8.35452 19.0811 8.73657 19.081 8.97214 18.8454C9.1804 18.637 9.45737 18.5223 9.752 18.5223Z" fill="white"/>
<path d="M20.6147 17.9918C20.3789 18.2275 20.3789 18.6095 20.6147 18.8452C20.8503 19.0809 21.2323 19.0809 21.468 18.8452C21.898 18.4151 22.5978 18.4152 23.0279 18.8452C23.1457 18.9631 23.3001 19.022 23.4546 19.022C23.609 19.022 23.7634 18.9631 23.8813 18.8452C24.117 18.6096 24.117 18.2276 23.8813 17.9918C22.9808 17.0913 21.5154 17.0912 20.6147 17.9918Z" fill="white"/>
<path d="M22.2447 23.9448C18.8013 27.3881 13.1987 27.3881 9.75528 23.9448C9.51964 23.7092 9.13759 23.7092 8.90195 23.9448C8.66623 24.1804 8.66623 24.5626 8.90195 24.7982C10.8589 26.7551 13.4294 27.7336 16 27.7336C18.5706 27.7336 21.1412 26.7551 23.0981 24.7982C23.3338 24.5626 23.3338 24.1805 23.0981 23.9448C22.8624 23.7092 22.4803 23.7092 22.2447 23.9448Z" fill="white"/>
<path d="M30.2381 19.1722C30.2381 17.5331 29.0531 16.1663 27.4951 15.8812V5.78632C27.4951 4.47672 26.8436 3.26261 25.7524 2.53857C24.7274 1.85857 23.455 1.70424 22.3044 2.10968L18.5159 0.823759C15.6048 -0.164438 12.5405 -0.265815 9.65434 0.530491C5.87594 1.573 3.70977 3.77749 3.37539 6.91112C3.07948 7.30139 2.84437 7.73971 2.68461 8.21265L2.39074 9.08242C2.23302 9.54941 2.40688 10.0401 2.82355 10.3035C3.24015 10.5669 3.75812 10.5137 4.11233 10.1709C4.23332 10.0537 4.36563 9.95506 4.50487 9.87254V15.8812C2.9468 16.1663 1.76181 17.533 1.76181 19.1722C1.76181 20.877 3.04343 22.2871 4.69359 22.4921C5.108 24.7804 6.19697 26.8911 7.86207 28.5802C10.036 30.7854 12.926 31.9998 16 31.9998C16.0004 31.9998 16.0007 31.9998 16.0011 31.9998C19.0711 31.9995 21.9574 30.8038 24.1282 28.6331C25.8239 26.9373 26.9246 24.8051 27.3254 22.4897C28.9663 22.2762 30.2381 20.8703 30.2381 19.1722ZM25.0851 3.54426C25.8497 4.05152 26.2882 4.86872 26.2882 5.78632V13.6829C24.4152 13.3918 22.9771 11.7683 22.9771 9.81499L22.9272 3.18024C23.664 2.98601 24.4324 3.11122 25.0851 3.54426ZM3.71075 8.94597L3.82804 8.59892C4.13526 7.68962 4.81752 6.9514 5.69982 6.57365C6.58204 6.1959 7.58713 6.21159 8.45721 6.61687C10.2846 7.46794 12.4936 7.00782 13.8292 5.49803L13.9787 5.32899C14.1996 5.0794 14.1762 4.69803 13.9266 4.47725C13.6769 4.25647 13.2955 4.27977 13.0748 4.52937L12.9253 4.69841C11.9411 5.81099 10.3132 6.14996 8.96673 5.52285C7.78604 4.97289 6.42205 4.95155 5.22476 5.46424C5.11577 5.51093 5.00979 5.56305 4.90547 5.61758C5.60689 3.74762 7.3045 2.43078 9.97544 1.69383C12.6276 0.962021 15.4467 1.05638 18.1281 1.96651L21.7203 3.18582L21.7674 6.30384C20.1679 8.47854 17.8352 9.95069 15.1769 10.4569C12.4549 10.9752 9.67803 10.4267 7.35767 8.91256C6.2239 8.17282 4.79444 8.20443 3.71075 8.94597ZM2.96868 19.1722C2.96868 18.202 3.61805 17.381 4.50487 17.1198V20.3905C4.50487 20.6731 4.51505 20.9541 4.53489 21.2332C3.63283 20.9818 2.96868 20.1534 2.96868 19.1722ZM23.2749 27.7796C21.332 29.7225 18.7488 30.7926 16.001 30.7929C16.0006 30.7929 16.0005 30.7929 16 30.7929C13.2519 30.7929 10.6668 29.706 8.72151 27.7329C6.78064 25.764 5.71173 23.1565 5.71173 20.3905V9.58803C6.0535 9.61352 6.39263 9.7241 6.69797 9.92331C9.28112 11.6089 12.3724 12.2195 15.4025 11.6425C17.8622 11.1741 20.0718 9.96321 21.7702 8.17742V9.81492C21.7702 12.4346 23.7477 14.5999 26.2881 14.8996V20.5046C26.2882 23.2528 25.2181 25.8365 23.2749 27.7796ZM27.4718 21.2313C27.4867 20.9904 27.4951 20.7481 27.4951 20.5047V17.1198C28.3819 17.381 29.0313 18.202 29.0313 19.1722C29.0313 20.1509 28.3705 20.9777 27.4718 21.2313Z" fill="white"/>
</g>
<defs>
<clipPath id="clip0">
<rect width="32" height="32" fill="white"/>
</clipPath>
</defs>
</svg>
