<svg width="60" height="33" viewBox="0 0 60 33" fill="none" xmlns="http://www.w3.org/2000/svg">
<path d="M6.52017 9.4474L6.99429 6.89979H8.443L7.95571 9.4474H9.29905L9.78635 6.89979H11.156V5.7852H9.99707L10.3395 3.9143H11.7223V2.78645H10.5502L11.0375 0.238839H9.69416L9.20686 2.78645H7.77132L8.25862 0.238839H6.91527L6.42798 2.78645H5.05829V3.9143H6.21725L5.87483 5.7852H4.49197V6.89979H5.66411L5.17682 9.4474H6.52017ZM8.65372 5.7852H7.21818L7.5606 3.9143H8.99614L8.65372 5.7852Z" fill="white"/>
<path d="M12.6662 0V9.4474H17.3547C19.1195 9.4474 20.5287 8.47878 20.5287 6.63441C20.5287 5.3208 19.7912 4.60428 18.8166 4.32563C19.5805 3.98065 20.0941 3.29067 20.0941 2.37512C20.0941 0.703247 18.7507 0 17.1045 0H12.6662ZM14.668 1.60553H16.5382C17.3284 1.60553 18.0922 1.76475 18.0922 2.72011C18.0922 3.67546 17.2889 3.82142 16.5382 3.82142H14.668V1.60553ZM14.668 5.22791H16.6304C17.5523 5.22791 18.4742 5.37387 18.4742 6.51499C18.4742 7.62957 17.6181 7.80207 16.7357 7.80207H14.668V5.22791Z" fill="white"/>
<path d="M29.0379 6.40884C29.0379 4.35217 27.5892 3.39682 25.7059 3.39682H23.9938V0H21.9524V9.4474H25.6005C27.6287 9.4474 29.0379 8.49204 29.0379 6.40884ZM27.0361 6.3823C27.0361 7.39073 26.4302 7.74899 25.4425 7.74899H23.9938V5.02888H25.4293C26.3512 5.02888 27.0361 5.38714 27.0361 6.3823ZM30.0388 0V9.4474H32.0934V0H30.0388Z" fill="white"/>
<path d="M33.8743 9.4474H46.2805V0H44.226V7.68265H41.1047V0H39.0502V7.68265H35.9289V0H33.8743V9.4474Z" fill="white"/>
<path d="M55.0939 0H48.0611V9.4474H55.1861V7.70918H50.1024V5.38714H54.6856V3.75508H50.1024V1.69841H55.0939V0Z" fill="white"/>
<path d="M10.1803 11.6102H2.47582V13.375H5.29422V21.0576H7.36192V13.375H10.1803V11.6102Z" fill="white"/>
<path d="M15.2738 11.3846C12.4686 11.3846 10.6248 13.3484 10.6248 16.3472C10.6248 19.3061 12.4818 21.2832 15.2607 21.2832C18.0132 21.2832 19.8702 19.2929 19.8702 16.3472C19.8702 13.3882 18.0132 11.3846 15.2738 11.3846ZM15.2475 13.0831C16.8147 13.0831 17.7893 14.3171 17.7893 16.3074C17.7893 18.3242 16.8279 19.5715 15.2738 19.5715C13.6803 19.5582 12.7057 18.3375 12.7057 16.3074C12.7057 14.3436 13.6934 13.0831 15.2475 13.0831Z" fill="white"/>
<path d="M28.6672 11.6102H22.1348L21.9768 17.3556C21.9241 19.2929 21.4763 19.5715 20.9232 19.5715C20.6598 19.5715 20.3569 19.4919 20.1988 19.4123V21.0842C20.4754 21.177 20.989 21.2434 21.3578 21.2434C22.9646 21.2434 23.8733 20.0625 23.9655 17.3822L24.0972 13.375H26.6127V21.0576H28.6672V11.6102Z" fill="white"/>
<path d="M38.0006 18.0191C38.0006 15.9624 36.5519 15.007 34.6685 15.007H32.456V11.6102H30.4146V21.0576H34.5632C36.5914 21.0576 38.0006 20.1023 38.0006 18.0191ZM35.9987 17.9925C35.9987 19.0009 35.3929 19.3592 34.4051 19.3592H32.456V16.6391H34.392C35.3139 16.6391 35.9987 16.9974 35.9987 17.9925Z" fill="white"/>
<path d="M47.5619 11.6102H44.9674L41.2798 15.5378V11.6102H39.2516V21.0576H41.2798V18.0058L42.4783 16.8116L45.323 21.0576H47.9044L43.8875 15.3388L47.5619 11.6102Z" fill="white"/>
<path d="M52.7391 11.3846C49.9339 11.3846 48.0901 13.3484 48.0901 16.3472C48.0901 19.3061 49.9471 21.2832 52.7259 21.2832C55.4785 21.2832 57.3355 19.2929 57.3355 16.3472C57.3355 13.3882 55.4785 11.3846 52.7391 11.3846ZM52.7128 13.0831C54.28 13.0831 55.2546 14.3171 55.2546 16.3074C55.2546 18.3242 54.2932 19.5715 52.7391 19.5715C51.1455 19.5582 50.171 18.3375 50.171 16.3074C50.171 14.3436 51.1587 13.0831 52.7128 13.0831Z" fill="white"/>
<path d="M8.46836 23.2204H1.936L1.77796 28.9658C1.72528 30.9031 1.2775 31.1817 0.724354 31.1817C0.460953 31.1817 0.158041 31.1021 0 31.0225V32.6944C0.276572 32.7873 0.790205 32.8536 1.15897 32.8536C2.76572 32.8536 3.67445 31.6727 3.76664 28.9924L3.89834 24.9852H6.41383V32.6678H8.46836V23.2204Z" fill="white"/>
<path d="M18.0124 22.9949C15.7604 22.9949 14.1931 24.481 13.8112 26.8428H12.2966V23.2204H10.2421V32.6678H12.2966V28.528H13.7585C13.9561 31.1685 15.6155 32.8934 17.9993 32.8934C20.5279 32.8934 22.24 30.9031 22.24 27.9574C22.24 24.9985 20.5279 22.9949 18.0124 22.9949ZM17.9861 24.6933C19.3295 24.6933 20.1592 25.9273 20.1592 27.9176C20.1592 29.9345 19.3426 31.1817 18.0124 31.1817C16.6428 31.1685 15.813 29.9477 15.813 27.9176C15.813 25.9538 16.6559 24.6933 17.9861 24.6933Z" fill="white"/>
<path d="M25.7114 26.6173V24.9321H30.6238V23.2204H23.67V32.6678H28.0557C30.0839 32.6678 31.4931 31.7125 31.4931 29.6293C31.4931 27.5726 30.0443 26.6173 28.161 26.6173H25.7114ZM29.4912 29.6027C29.4912 30.6112 28.8854 30.9694 27.8976 30.9694H25.7114V28.2493H27.8845C28.8064 28.2493 29.4912 28.6076 29.4912 29.6027Z" fill="white"/>
<path d="M37.1575 22.9949C34.3523 22.9949 32.5085 24.9586 32.5085 27.9574C32.5085 30.9163 34.3655 32.8934 37.1444 32.8934C39.8969 32.8934 41.7539 30.9031 41.7539 27.9574C41.7539 24.9985 39.8969 22.9949 37.1575 22.9949ZM37.1312 24.6933C38.6984 24.6933 39.673 25.9273 39.673 27.9176C39.673 29.9345 38.7116 31.1817 37.1575 31.1817C35.5639 31.1685 34.5894 29.9477 34.5894 27.9176C34.5894 25.9538 35.5771 24.6933 37.1312 24.6933Z" fill="white"/>
<path d="M43.1541 23.2204V32.6678H47.8427C49.6075 32.6678 51.0167 31.6992 51.0167 29.8548C51.0167 28.5412 50.2791 27.8247 49.3046 27.5461C50.0684 27.2011 50.5821 26.5111 50.5821 25.5956C50.5821 23.9237 49.2387 23.2204 47.5924 23.2204H43.1541ZM45.156 24.826H47.0261C47.8163 24.826 48.5802 24.9852 48.5802 25.9405C48.5802 26.8959 47.7768 27.0419 47.0261 27.0419H45.156V24.826ZM45.156 28.4483H47.1183C48.0402 28.4483 48.9621 28.5943 48.9621 29.7354C48.9621 30.85 48.1061 31.0225 47.2237 31.0225H45.156V28.4483Z" fill="white"/>
<path d="M60 29.6293C60 27.5726 58.5513 26.6173 56.668 26.6173H54.4554V23.2204H52.414V32.6678H56.5626C58.5908 32.6678 60 31.7125 60 29.6293ZM57.9981 29.6027C57.9981 30.6112 57.3923 30.9694 56.4046 30.9694H54.4554V28.2493H56.3914C57.3133 28.2493 57.9981 28.6076 57.9981 29.6027Z" fill="white"/>
</svg>
