<svg width="197" height="108" viewBox="0 0 197 108" fill="none" xmlns="http://www.w3.org/2000/svg">
<path d="M21.4079 31.019L22.9646 22.6543H27.7212L26.1212 31.019H30.5319L32.1318 22.6543H36.629V18.9948H32.8237L33.948 12.852H38.4884V9.14885H34.6399L36.2398 0.784187H31.8291L30.2292 9.14885H25.5158L27.1158 0.784187H22.7051L21.1052 9.14885H16.608V12.852H20.4133L19.289 18.9948H14.7486V22.6543H18.5972L16.9972 31.019H21.4079ZM28.413 18.9948H23.6997L24.824 12.852H29.5373L28.413 18.9948Z" fill="white"/>
<path d="M41.5873 0V31.019H56.9813C62.7757 31.019 67.4026 27.8386 67.4026 21.783C67.4026 17.4699 64.981 15.1174 61.7812 14.2025C64.2892 13.0698 65.9756 10.8044 65.9756 7.7983C65.9756 2.30899 61.5649 0 56.1597 0H41.5873ZM48.16 5.27148H54.3003C56.8948 5.27148 59.4029 5.79427 59.4029 8.93102C59.4029 12.0678 56.7651 12.547 54.3003 12.547H48.16V5.27148ZM48.16 17.165H54.603C57.6299 17.165 60.6569 17.6442 60.6569 21.3909C60.6569 25.0504 57.8462 25.6168 54.949 25.6168H48.16V17.165Z" fill="white"/>
<path d="M95.3412 21.0424C95.3412 14.2896 90.5846 11.1529 84.401 11.1529H78.7796V0H72.0771V31.019H84.0551C90.7143 31.019 95.3412 27.8822 95.3412 21.0424ZM88.7684 20.9552C88.7684 24.2662 86.7793 25.4425 83.5362 25.4425H78.7796V16.5115H83.4929C86.5198 16.5115 88.7684 17.6878 88.7684 20.9552ZM98.6275 0V31.019H105.373V0H98.6275Z" fill="white"/>
<path d="M111.221 31.019H151.954V0H145.209V25.2247H134.96V0H128.215V25.2247H117.966V0H111.221V31.019Z" fill="white"/>
<path d="M180.892 0H157.801V31.019H181.194V25.3118H164.503V17.6878H179.551V12.3292H164.503V5.57644H180.892V0Z" fill="white"/>
<path d="M33.4254 38.1202H8.12894V43.9145H17.3827V69.1392H24.1716V43.9145H33.4254V38.1202Z" fill="white"/>
<path d="M50.1491 37.3796C40.9386 37.3796 34.8848 43.8273 34.8848 53.6733C34.8848 63.3885 40.9819 69.8798 50.1059 69.8798C59.1434 69.8798 65.2405 63.3449 65.2405 53.6733C65.2405 43.958 59.1434 37.3796 50.1491 37.3796ZM50.0626 42.956C55.2084 42.956 58.4083 47.0077 58.4083 53.5426C58.4083 60.1646 55.2517 64.2598 50.1491 64.2598C44.9169 64.2162 41.717 60.2081 41.717 53.5426C41.717 47.0948 44.9601 42.956 50.0626 42.956Z" fill="white"/>
<path d="M94.124 38.1202H72.6761L72.1572 56.9843C71.9842 63.3449 70.514 64.2598 68.6978 64.2598C67.833 64.2598 66.8384 63.9984 66.3195 63.737V69.2263C67.2276 69.5313 68.914 69.7491 70.1248 69.7491C75.4003 69.7491 78.384 65.8717 78.6867 57.0714L79.1191 43.9145H87.3783V69.1392H94.124V38.1202Z" fill="white"/>
<path d="M124.769 59.1626C124.769 52.4098 120.012 49.2731 113.828 49.2731H106.564V38.1202H99.8613V69.1392H113.482C120.142 69.1392 124.769 66.0024 124.769 59.1626ZM118.196 59.0754C118.196 62.3864 116.207 63.5627 112.964 63.5627H106.564V54.6317H112.92C115.947 54.6317 118.196 55.808 118.196 59.0754Z" fill="white"/>
<path d="M156.162 38.1202H147.643L135.535 51.0157V38.1202H128.876V69.1392H135.535V59.119L139.47 55.1981L148.811 69.1392H157.286L144.097 50.3622L156.162 38.1202Z" fill="white"/>
<path d="M173.16 37.3796C163.95 37.3796 157.896 43.8273 157.896 53.6733C157.896 63.3885 163.993 69.8798 173.117 69.8798C182.154 69.8798 188.251 63.3449 188.251 53.6733C188.251 43.958 182.154 37.3796 173.16 37.3796ZM173.074 42.956C178.219 42.956 181.419 47.0077 181.419 53.5426C181.419 60.1646 178.263 64.2598 173.16 64.2598C167.928 64.2162 164.728 60.2081 164.728 53.5426C164.728 47.0948 167.971 42.956 173.074 42.956Z" fill="white"/>
<path d="M27.8045 76.2404H6.35654L5.83764 95.1045C5.66467 101.465 4.19445 102.38 2.3783 102.38C1.51346 102.38 0.518901 102.119 0 101.857V107.347C0.908077 107.651 2.59451 107.869 3.80527 107.869C9.08077 107.869 12.0645 103.992 12.3671 95.1916L12.7996 82.0347H21.0587V107.259H27.8045V76.2404Z" fill="white"/>
<path d="M59.1409 75.4998C51.7465 75.4998 46.6008 80.3792 45.3468 88.1339H40.374V76.2404H33.6282V107.259H40.374V93.6668H45.1738C45.8224 102.336 51.2709 108 59.0976 108C67.4001 108 73.0215 101.465 73.0215 91.7935C73.0215 82.0782 67.4001 75.4998 59.1409 75.4998ZM59.0544 81.0762C63.4651 81.0762 66.1893 85.1279 66.1893 91.6628C66.1893 98.2848 63.5083 102.38 59.1409 102.38C54.6437 102.336 51.9195 98.3284 51.9195 91.6628C51.9195 85.215 54.687 81.0762 59.0544 81.0762Z" fill="white"/>
<path d="M84.4191 87.3933V81.8604H100.548V76.2404H77.7166V107.259H92.1161C98.7753 107.259 103.402 104.123 103.402 97.2828C103.402 90.53 98.6456 87.3933 92.462 87.3933H84.4191ZM96.8295 97.1956C96.8295 100.507 94.8403 101.683 91.5972 101.683H84.4191V92.7519H91.554C94.5809 92.7519 96.8295 93.9282 96.8295 97.1956Z" fill="white"/>
<path d="M122.001 75.4998C112.79 75.4998 106.736 81.9475 106.736 91.7935C106.736 101.509 112.833 108 121.957 108C130.995 108 137.092 101.465 137.092 91.7935C137.092 82.0782 130.995 75.4998 122.001 75.4998ZM121.914 81.0762C127.06 81.0762 130.26 85.1279 130.26 91.6628C130.26 98.2848 127.103 102.38 122.001 102.38C116.768 102.336 113.568 98.3284 113.568 91.6628C113.568 85.215 116.812 81.0762 121.914 81.0762Z" fill="white"/>
<path d="M141.689 76.2404V107.259H157.083C162.878 107.259 167.505 104.079 167.505 98.0234C167.505 93.7104 165.083 91.3578 161.883 90.4429C164.391 89.3102 166.078 87.0448 166.078 84.0387C166.078 78.5494 161.667 76.2404 156.262 76.2404H141.689ZM148.262 81.5119H154.402C156.997 81.5119 159.505 82.0347 159.505 85.1714C159.505 88.3082 156.867 88.7874 154.402 88.7874H148.262V81.5119ZM148.262 93.4054H154.705C157.732 93.4054 160.759 93.8846 160.759 97.6313C160.759 101.291 157.948 101.857 155.051 101.857H148.262V93.4054Z" fill="white"/>
<path d="M197 97.2828C197 90.53 192.243 87.3933 186.06 87.3933H178.795V76.2404H172.093V107.259H185.714C192.373 107.259 197 104.123 197 97.2828ZM190.427 97.1956C190.427 100.507 188.438 101.683 185.195 101.683H178.795V92.7519H185.152C188.179 92.7519 190.427 93.9282 190.427 97.1956Z" fill="white"/>
</svg>
