<svg width="24" height="24" viewBox="0 0 24 24" fill="none" xmlns="http://www.w3.org/2000/svg">
<path d="M6 7.4641H0.75C0.4155 7.4641 0.123 7.6846 0.03 8.0056C-0.063 8.3281 0.0675 8.6716 0.351 8.84859C0.357 8.85309 0.87 9.18759 1.2675 9.79659C0.447 10.8391 0 12.1201 0 13.4641C0 16.7731 2.691 19.4641 6 19.4641C9.309 19.4641 12 16.7731 12 13.4641C12 10.1551 9.309 7.4641 6 7.4641ZM6 17.9641C3.519 17.9641 1.5 15.9451 1.5 13.4641C1.5 12.3211 1.9335 11.2366 2.718 10.4116C2.9295 10.1896 2.985 9.86409 2.859 9.58509C2.757 9.36009 2.64 9.15159 2.5155 8.96409H6C8.481 8.96409 10.5 10.9831 10.5 13.4641C10.5 15.9451 8.481 17.9641 6 17.9641Z" fill="white"/>
<path d="M14.1345 15.8581C13.8 15.6166 13.332 15.6856 13.086 16.0246L12.039 17.4676L10.8975 16.0036C10.6425 15.6766 10.17 15.6166 9.84448 15.8731C9.51898 16.1281 9.46048 16.5991 9.71548 16.9261L11.4705 19.1761C11.613 19.3576 11.8305 19.4641 12.0615 19.4641C12.066 19.4641 12.0705 19.4641 12.075 19.4641C12.3105 19.4596 12.531 19.3456 12.6675 19.1551L14.2995 16.9051C14.5425 16.5706 14.4705 16.1011 14.1345 15.8581Z" fill="white"/>
<path d="M20.0055 7.66059C15.4425 3.49509 8.55749 3.49359 3.99449 7.66059C3.68849 7.93959 3.66599 8.41359 3.94649 8.71959C4.22549 9.02709 4.69949 9.04659 5.00549 8.76759C8.99399 5.12709 15.0075 5.12709 18.9945 8.76759C19.1385 8.89959 19.32 8.96409 19.5 8.96409C19.704 8.96409 19.9065 8.88159 20.0535 8.71959C20.334 8.41359 20.3115 7.93959 20.0055 7.66059Z" fill="white"/>
<path d="M6 10.4641C4.3455 10.4641 3 11.8096 3 13.4641C3 15.1186 4.3455 16.4641 6 16.4641C7.6545 16.4641 9 15.1186 9 13.4641C9 11.8096 7.6545 10.4641 6 10.4641ZM6 14.9641C5.1735 14.9641 4.5 14.2921 4.5 13.4641C4.5 12.6376 5.1735 11.9641 6 11.9641C6.8265 11.9641 7.5 12.6376 7.5 13.4641C7.5 14.2921 6.8265 14.9641 6 14.9641Z" fill="white"/>
<path d="M6.03002 12.7141H6.01502C5.60102 12.7141 5.27252 13.0501 5.27252 13.4641C5.27252 13.8781 5.61602 14.2141 6.03002 14.2141C6.44402 14.2141 6.78001 13.8781 6.78001 13.4641C6.78001 13.0501 6.44402 12.7141 6.03002 12.7141Z" fill="white"/>
<path d="M22.731 9.79659C23.1285 9.18909 23.6445 8.85009 23.649 8.84859C23.9325 8.6701 24.063 8.3266 23.97 8.0056C23.8785 7.6846 23.5845 7.4641 23.25 7.4641H18C14.691 7.4641 12 10.1551 12 13.4641C12 16.7731 14.691 19.4641 18 19.4641C21.309 19.4641 24 16.7731 24 13.4641C24 12.1216 23.553 10.8391 22.731 9.79659ZM18 17.9641C15.519 17.9641 13.5 15.9451 13.5 13.4641C13.5 10.9831 15.519 8.96409 18 8.96409H21.4845C21.36 9.15159 21.243 9.36009 21.141 9.58509C21.0165 9.86409 21.0705 10.1911 21.282 10.4116C22.068 11.2381 22.5 12.3211 22.5 13.4641C22.5 15.9451 20.481 17.9641 18 17.9641Z" fill="white"/>
<path d="M18 10.4641C16.3455 10.4641 15 11.8096 15 13.4641C15 15.1186 16.3455 16.4641 18 16.4641C19.6545 16.4641 21 15.1186 21 13.4641C21 11.8096 19.6545 10.4641 18 10.4641ZM18 14.9641C17.172 14.9641 16.5 14.2921 16.5 13.4641C16.5 12.6376 17.172 11.9641 18 11.9641C18.828 11.9641 19.5 12.6376 19.5 13.4641C19.5 14.2921 18.828 14.9641 18 14.9641Z" fill="white"/>
<path d="M18.03 12.7141H18.015C17.601 12.7141 17.2725 13.0501 17.2725 13.4641C17.2725 13.8781 17.6175 14.2141 18.03 14.2141C18.444 14.2141 18.78 13.8781 18.78 13.4641C18.78 13.0501 18.444 12.7141 18.03 12.7141Z" fill="white"/>
</svg>
